<?xml version="1.0" encoding="UTF-8"?>
<svg width="270px" height="270px" viewBox="0 0 270 270" version="1.1" xmlns="http://www.w3.org/2000/svg" xmlns:xlink="http://www.w3.org/1999/xlink">
    <!-- Generator: Sketch 52.5 (67469) - http://www.bohemiancoding.com/sketch -->
    <title>Group 6</title>
    <desc>Created with Sketch.</desc>
    <g id="Screens" stroke="none" stroke-width="1" fill="none" fill-rule="evenodd">
        <g id="C---01-Services---01-Services" transform="translate(-255.000000, -2186.000000)">
            <g id="Service-3" transform="translate(255.000000, 2136.000000)">
                <g id="Group-6" transform="translate(0.000000, 50.000000)">
                    <circle id="Oval" fill="#67DA99" cx="135" cy="135" r="135"></circle>
                    <g id="Icon" transform="translate(95.000000, 95.000000)" stroke="#FFFFFF" stroke-linecap="round" stroke-width="4">
                        <path d="M40.9992,80.9994667 C18.9085333,80.9994667 0.9992,63.0928 0.9992,40.9994667 C0.9992,25.6554667 9.64986667,12.3434667 22.3325333,5.63413333 L22.3325333,19.6741333" id="Stroke-1"></path>
                        <path d="M40.9992,0.999466667 C63.0898667,0.999466667 80.9992,18.9088 80.9992,40.9994667 C80.9992,56.3354667 72.3592,69.6421333 59.6898667,76.3541333 L59.6898667,62.2288" id="Stroke-3"></path>
                        <path d="M54.3272,40.9850667 C54.3405333,48.3504 48.3832,54.3290667 41.0178667,54.3424 C33.6552,54.3557333 27.6738667,48.3984 27.6605333,41.0357333 C27.6472,33.6704 33.6045333,27.6890667 40.9672,27.6757333 C48.3325333,27.6624 54.3138667,33.6224 54.3272,40.9850667 Z" id="Stroke-5"></path>
                        <path d="M54.8845333,40.9824 L62.3325333,40.9690667" id="Stroke-7"></path>
                        <path d="M19.6658667,41.0474667 L27.3298667,41.0341333" id="Stroke-9"></path>
                        <path d="M40.9730667,26.5658667 L40.9597333,19.6752" id="Stroke-11"></path>
                        <path d="M41.0381333,62.3418667 L41.0248,55.3418667" id="Stroke-13"></path>
                        <path d="M30.7021333,30.7493333 L25.8834667,25.952" id="Stroke-15"></path>
                        <path d="M56.1112,56.0658667 L51.0712,51.0472" id="Stroke-17"></path>
                        <path d="M30.6266667,51.4186667 L25.9413333,56.1226667" id="Stroke-19"></path>
                        <path d="M56.0562667,25.8952 L51.2536,30.7138667" id="Stroke-21"></path>
                        <path d="" id="Stroke-23"></path>
                    </g>
                </g>
            </g>
        </g>
    </g>
</svg>