<?xml version="1.0" encoding="UTF-8"?>
<svg width="270px" height="270px" viewBox="0 0 270 270" version="1.1" xmlns="http://www.w3.org/2000/svg" xmlns:xlink="http://www.w3.org/1999/xlink">
    <!-- Generator: Sketch 52.5 (67469) - http://www.bohemiancoding.com/sketch -->
    <title>Group 5</title>
    <desc>Created with Sketch.</desc>
    <g id="Screens" stroke="none" stroke-width="1" fill="none" fill-rule="evenodd">
        <g id="C---01-Services---01-Services" transform="translate(-955.000000, -1488.000000)">
            <g id="Service-2" transform="translate(255.000000, 1438.000000)">
                <g id="Group-5" transform="translate(700.000000, 50.000000)">
                    <circle id="Oval" fill="#F2BF46" cx="135" cy="135" r="135"></circle>
                    <g id="Icon" transform="translate(96.000000, 95.000000)">
                        <path d="M77,10.6611545 C76.9974334,4.76970242 72.4006866,-0.00160035542 66.7336755,0.00106666682 L66.7208426,0.00106666682 L66.7208426,58.6755558 L66.7336755,58.6755558 C72.4006866,58.6728888 76.9974334,63.4441915 77,69.3356436 C77,75.2244287 72.4083864,79.9983985 66.7413753,80.0010655 L66.7285424,80.0010655 L10.2714576,80.0010655 L10.2586247,80.0010655 C4.59161361,79.9983985 0,75.2244287 0,69.3356436 C0,63.4441915 4.59931336,58.6728888 10.2663245,58.6755558 L10.2791574,58.6755558 L10.2791574,0.00106666682 L10.2663245,0.00106666682 C4.59931336,-0.00160035542 0,4.76970242 0,10.6611545 L0,69.3356436" id="Stroke-1" stroke="#FFFFFF" stroke-width="4" stroke-linecap="round" stroke-linejoin="round"></path>
                        <path d="M77,10 L77,69" id="Stroke-3" stroke="#FFFFFF" stroke-width="4" stroke-linecap="round" stroke-linejoin="round"></path>
                        <polyline id="Stroke-5" stroke="#FFFFFF" stroke-width="4" stroke-linecap="round" stroke-linejoin="round" points="66 21 65.987504 21 11.0149952 21 11 21"></polyline>
                        <rect id="Rectangle" fill="#FFFFFF" opacity="0.5" x="22" y="33" width="13" height="35" rx="2"></rect>
                        <rect id="Rectangle" fill="#FFFFFF" opacity="0.5" x="42" y="33" width="13" height="12" rx="2"></rect>
                        <rect id="Rectangle" fill="#FFFFFF" opacity="0.5" x="42" y="55" width="13" height="13" rx="2"></rect>
                    </g>
                </g>
            </g>
        </g>
    </g>
</svg>