<?xml version="1.0" encoding="UTF-8"?>
<svg width="33px" height="30px" viewBox="0 0 33 30" version="1.1" xmlns="http://www.w3.org/2000/svg" xmlns:xlink="http://www.w3.org/1999/xlink">
    <!-- Generator: Sketch 52.5 (67469) - http://www.bohemiancoding.com/sketch -->
    <title>Icon</title>
    <desc>Created with Sketch.</desc>
    <g id="Screens" stroke="none" stroke-width="1" fill="none" fill-rule="evenodd" stroke-linejoin="round">
        <g id="E---01-Career---01-Career" transform="translate(-961.000000, -459.000000)" stroke="#3399D4" stroke-width="2">
            <g id="Hero">
                <g id="Icon" transform="translate(962.000000, 460.000000)">
                    <path d="M19.0107,22.998 L19.9447,22.998 L25.7057,28 L26.0087,28 L26.0087,24.998 C26.0087,23.894 26.9037,22.998 28.0077,22.998 C29.1127,22.998 30.0077,22.103 30.0077,20.998 L30.0077,2 C30.0077,0.895 29.1127,0 28.0077,0 L10.0037,0 C8.8997,0 8.0047,0.895 8.0047,2 L8.0047,2.998" id="Stroke-1"></path>
                    <path d="M13.9995,6.0034 L1.9995,6.0034 C0.8955,6.0034 -0.0005,6.8994 -0.0005,8.0034 L-0.0005,20.9984 C-0.0005,22.1034 0.8955,22.9984 1.9995,22.9984 C3.1045,22.9984 3.9995,23.8934 3.9995,24.9984 L3.9995,28.0004 L4.3015,28.0004 L9.4985,23.4874 C9.8625,23.1724 10.3285,22.9984 10.8105,22.9984 L13.9995,22.9984 C15.1035,22.9984 15.9995,22.1034 15.9995,20.9984 L15.9995,8.0034 C15.9995,6.8994 15.1035,6.0034 13.9995,6.0034 Z" id="Stroke-3"></path>
                </g>
            </g>
        </g>
    </g>
</svg>