<?xml version="1.0" encoding="UTF-8"?>
<svg width="60px" height="59px" viewBox="0 0 60 59" version="1.1" xmlns="http://www.w3.org/2000/svg" xmlns:xlink="http://www.w3.org/1999/xlink">
    <!-- Generator: Sketch 52.5 (67469) - http://www.bohemiancoding.com/sketch -->
    <title>Group 4</title>
    <desc>Created with Sketch.</desc>
    <g id="Screens" stroke="none" stroke-width="1" fill="none" fill-rule="evenodd">
        <g id="C---01-Services---01-Services" transform="translate(-794.000000, -3418.000000)">
            <g id="Content" transform="translate(0.000000, 2766.000000)">
                <g id="Contact" transform="translate(755.000000, 616.000000)">
                    <g id="Group-4" transform="translate(30.000000, 30.000000)">
                        <rect id="bound" x="0" y="0" width="72" height="72"></rect>
                        <polygon id="Path-75" fill="#FFFFFF" opacity="0.3" points="15 45 9 64.5 28.5 58.5"></polygon>
                        <path d="M40.5,63 C24.7598846,63 12,50.2401154 12,34.5 C12,18.7598846 24.7598846,6 40.5,6 C56.2401154,6 69,18.7598846 69,34.5 C69,50.2401154 56.2401154,63 40.5,63 Z M25.5,39 C27.9852814,39 30,36.9852814 30,34.5 C30,32.0147186 27.9852814,30 25.5,30 C23.0147186,30 21,32.0147186 21,34.5 C21,36.9852814 23.0147186,39 25.5,39 Z M40.5,39 C42.9852814,39 45,36.9852814 45,34.5 C45,32.0147186 42.9852814,30 40.5,30 C38.0147186,30 36,32.0147186 36,34.5 C36,36.9852814 38.0147186,39 40.5,39 Z M55.5,39 C57.9852814,39 60,36.9852814 60,34.5 C60,32.0147186 57.9852814,30 55.5,30 C53.0147186,30 51,32.0147186 51,34.5 C51,36.9852814 53.0147186,39 55.5,39 Z" id="Combined-Shape" fill="#FFFFFF"></path>
                    </g>
                </g>
            </g>
        </g>
    </g>
</svg>