<svg xmlns="http://www.w3.org/2000/svg" viewBox="0 0 40 40"><defs><style>.cls-1{fill:#231f20;}</style></defs><title>face</title><g id="Layer_2" data-name="Layer 2"><g id="Layer_1-2" data-name="Layer 1"><path class="cls-1" d="M20,0A20,20,0,1,0,40,20,20,20,0,0,0,20,0Zm0,39A19,19,0,1,1,39,20,19.02153,19.02153,0,0,1,20,39Z"/><path class="cls-1" d="M21.11572,15.85706a.63018.63018,0,0,1,.66321-.71h1.68152V12.61182l-2.316-.00916a2.90332,2.90332,0,0,0-3.15686,3.10052v1.69116H16.5v2.61053h1.48761v7.39246h3.12756V20.00488h2.11011L23.5,17.39465H21.11572Z"/></g></g></svg>