<svg xmlns="http://www.w3.org/2000/svg" viewBox="0 0 40 39.99994"><defs><style>.cls-1{fill:#010101;}</style></defs><title>instagram</title><g id="Layer_2" data-name="Layer 2"><g id="Layer_1-2" data-name="Layer 1"><path class="cls-1" d="M20,0A20,20,0,1,0,40,19.99994,19.99992,19.99992,0,0,0,20,0Zm0,38.99994a19,19,0,1,1,19-19A19.02153,19.02153,0,0,1,20,38.99994Z"/><circle class="cls-1" cx="20" cy="19.99994" r="2.99512"/><path class="cls-1" d="M24.147,12.16663H15.85291a3.67819,3.67819,0,0,0-3.68622,3.68628V24.147a3.67819,3.67819,0,0,0,3.68622,3.68628H24.147A3.67824,3.67824,0,0,0,27.83331,24.147V15.85291A3.67824,3.67824,0,0,0,24.147,12.16663ZM20,23.91663a3.91669,3.91669,0,1,1,3.91669-3.91669A3.92372,3.92372,0,0,1,20,23.91663Zm4.60785-7.603a.92157.92157,0,1,1,.92157-.92157A.92157.92157,0,0,1,24.60785,16.31366Z"/></g></g></svg>