<svg xmlns="http://www.w3.org/2000/svg" viewBox="0 0 40 40"><title>linkedin</title><g id="Layer_2" data-name="Layer 2"><g id="Layer_1-2" data-name="Layer 1"><path d="M20,0h0A20,20,0,1,0,40,20h0A20,20,0,0,0,20,0Zm0,39A19,19,0,1,1,39,20,19,19,0,0,1,20,39Z"/><path d="M16.2,17.58h-3a.18.18,0,0,0-.14.18v9.32a.18.18,0,0,0,.17.17H16.2a.18.18,0,0,0,.18-.17V17.76A.19.19,0,0,0,16.2,17.58Z"/><path d="M23.63,17.24A3.24,3.24,0,0,0,21,18.51v-.75a.19.19,0,0,0-.18-.18H18.1a.18.18,0,0,0-.17.18v9.32a.18.18,0,0,0,.17.17H21a.18.18,0,0,0,.17-.17V21.9a2.11,2.11,0,0,1,.37-1.23,1,1,0,0,1,.84-.5h.34a1,1,0,0,1,.84.5A2.18,2.18,0,0,1,24,21.9v5.18a.18.18,0,0,0,.17.17h2.94a.18.18,0,0,0,.17-.17V21a4.18,4.18,0,0,0-.79-2.76A3.5,3.5,0,0,0,23.63,17.24Z"/><path d="M14.65,12.75a1.9,1.9,0,1,0,1.9,1.9A1.9,1.9,0,0,0,14.65,12.75Z"/></g></g></svg>