<?xml version="1.0" encoding="UTF-8"?>
<svg width="62px" height="56px" viewBox="0 0 62 56" version="1.1" xmlns="http://www.w3.org/2000/svg" xmlns:xlink="http://www.w3.org/1999/xlink">
    <!-- Generator: Sketch 52.5 (67469) - http://www.bohemiancoding.com/sketch -->
    <title>Group 9</title>
    <desc>Created with Sketch.</desc>
    <g id="Screens" stroke="none" stroke-width="1" fill="none" fill-rule="evenodd">
        <g id="C---01-Services---01-Services" transform="translate(-259.000000, -4252.000000)" stroke-width="2">
            <g id="Put-Out" transform="translate(155.000000, 3920.000000)">
                <g id="1" transform="translate(0.000000, 292.000000)">
                    <g id="Group-9" transform="translate(104.000000, 41.000000)">
                        <path d="M1,54.0024 C1,51.3804 1.67,48.8024 2.952,46.5164 L28.008,1.7464 C28.612,0.6684 29.75,0.0004 30.984,0.0004 C32.22,0.0004 33.358,0.6664 33.962,1.7444 L59.046,46.5004 C60.328,48.7884 61.002,51.3644 61.002,53.9844" id="Stroke-1" stroke="#3399D4" stroke-linecap="round"></path>
                        <path d="M61.0116,51.9984 L47.0076,51.9984 C38.1716,51.9984 31.0076,44.8344 31.0076,35.9984 L31.0076,18.0044 L30.9936,35.9984 C30.9936,44.8344 23.8296,51.9984 14.9936,51.9984 L0.9896,51.9984" id="Stroke-3" stroke="#3399D4" stroke-linecap="round"></path>
                        <path d="M60.9922,6.0024 C60.9922,9.3164 58.3062,12.0024 54.9922,12.0024 C51.6782,12.0024 48.9922,9.3164 48.9922,6.0024 C48.9922,2.6884 51.6782,0.0024 54.9922,0.0024 C58.3062,0.0024 60.9922,2.6884 60.9922,6.0024 Z" id="Stroke-5" stroke="#C1E0F2"></path>
                        <path d="M30.9932,10.0004 L30.9932,14.0004" id="Stroke-7" stroke="#3399D4" stroke-linecap="round"></path>
                    </g>
                </g>
            </g>
        </g>
    </g>
</svg>