<?xml version="1.0" encoding="UTF-8"?>
<svg width="58px" height="62px" viewBox="0 0 58 62" version="1.1" xmlns="http://www.w3.org/2000/svg" xmlns:xlink="http://www.w3.org/1999/xlink">
    <!-- Generator: Sketch 52.5 (67469) - http://www.bohemiancoding.com/sketch -->
    <title>Group 9</title>
    <desc>Created with Sketch.</desc>
    <g id="Screens" stroke="none" stroke-width="1" fill="none" fill-rule="evenodd" stroke-linecap="round">
        <g id="C---01-Services---01-Services" transform="translate(-561.000000, -4250.000000)" stroke-width="2">
            <g id="Put-Out" transform="translate(155.000000, 3920.000000)">
                <g id="1" transform="translate(300.000000, 292.000000)">
                    <g id="Group-9" transform="translate(107.000000, 39.000000)">
                        <path d="M14.018,40.0004 L14.008,53.9884 C14.004,57.2984 16.686,59.9884 19.998,59.9924 C23.314,59.9984 26.004,57.3144 26.008,54.0004 L26.014,49.9724 C26.018,46.6664 28.704,43.9884 32.01,43.9924 C35.318,43.9964 37.996,46.6824 37.99,49.9884 L37.986,53.9744 C37.982,57.2944 40.67,59.9904 43.99,59.9944 C47.31,59.9984 50.006,57.3104 50.01,53.9904 L50.05,22.5764" id="Stroke-3" stroke="#C1E0F2"></path>
                        <path d="M56.0004,16.0014 C56.0004,19.3154 53.3144,22.0014 50.0004,22.0014 C46.6864,22.0014 44.0004,19.3154 44.0004,16.0014 C44.0004,12.6874 46.6864,10.0014 50.0004,10.0014 C53.3144,10.0014 56.0004,12.6874 56.0004,16.0014 Z" id="Stroke-5" stroke="#C1E0F2"></path>
                        <path d="M5.9984,0.0004 L3.9984,0.0004 C1.7904,0.0004 0.0004,1.7924 0.0004,4.0004 L0.0004,14.0004 L4.2024,32.2084 C5.2544,36.7724 9.3164,40.0044 13.9984,40.0044 C18.6824,40.0044 22.7444,36.7724 23.7964,32.2084 L27.9984,14.0004 L27.9984,4.0004 C27.9984,1.7904 26.2064,0.0004 23.9984,0.0004 L21.9984,0.0004" id="Stroke-1" stroke="#3399D4"></path>
                        <path d="M2.0024,22.0004 L7.1724,27.1724 C8.9844,28.9824 11.4404,30.0004 14.0024,30.0004 C16.5624,30.0004 19.0204,28.9824 20.8304,27.1724 L26.0024,22.0004" id="Stroke-7" stroke="#3399D4"></path>
                    </g>
                </g>
            </g>
        </g>
    </g>
</svg>