<?xml version="1.0" encoding="UTF-8"?>
<svg width="62px" height="47px" viewBox="0 0 62 47" version="1.1" xmlns="http://www.w3.org/2000/svg" xmlns:xlink="http://www.w3.org/1999/xlink">
    <!-- Generator: Sketch 52.5 (67469) - http://www.bohemiancoding.com/sketch -->
    <title>Group 13</title>
    <desc>Created with Sketch.</desc>
    <g id="Screens" stroke="none" stroke-width="1" fill="none" fill-rule="evenodd" stroke-linecap="round">
        <g id="C---01-Services---01-Services" transform="translate(-860.000000, -4257.000000)" stroke-width="2">
            <g id="Put-Out" transform="translate(155.000000, 3920.000000)">
                <g id="1" transform="translate(600.000000, 292.000000)">
                    <g id="Group-13" transform="translate(105.000000, 46.000000)">
                        <path d="M52.9992,24.1128 L44.2732,24.1128 C43.6472,24.1128 43.1392,23.6068 43.1392,22.9808 L43.1392,4.5068" id="Stroke-1" stroke="#3399D4"></path>
                        <path d="M9.0988,39.9956 L3.2708,39.9956 C2.0168,39.9956 0.9988,38.9796 0.9988,37.7236 L0.9988,2.2716 C0.9988,1.0156 2.0188,-0.0024 3.2748,-0.0004 L32.7328,0.0456 C33.9848,0.0476 35.0008,1.0636 35.0008,2.3176 C35.0008,3.5716 36.0188,4.5876 37.2728,4.5876 L47.0928,4.5876 C48.1968,4.5876 49.1408,5.3796 49.3288,6.4656 L52.1708,22.6156 C52.3308,23.5216 53.0228,24.2416 53.9208,24.4396 L59.2168,25.6056 C60.2568,25.8336 60.9988,26.7556 60.9988,27.8216 L60.9988,37.7216 C60.9988,38.9776 59.9828,39.9936 58.7268,39.9936 L55.4988,39.9936" id="Stroke-3" stroke="#3399D4"></path>
                        <path d="M19.011,39.9956 L44.405,39.9956" id="Stroke-5" stroke="#3399D4"></path>
                        <path d="M35.0012,2.5874 L35.0012,39.9954" id="Stroke-11" stroke="#3399D4"></path>
                        <path d="M8.9992,39.1578 C8.9992,41.8938 11.2172,44.1138 13.9552,44.1138 C16.6912,44.1138 18.9072,41.8938 18.9072,39.1578 C18.9072,36.4238 16.6912,34.2038 13.9552,34.2038 C11.2172,34.2038 8.9992,36.4238 8.9992,39.1578 Z" id="Stroke-7" stroke="#C1E0F2"></path>
                        <path d="M45.0208,39.1578 C45.0208,41.8938 47.2388,44.1138 49.9768,44.1138 C52.7128,44.1138 54.9288,41.8938 54.9288,39.1578 C54.9288,36.4238 52.7128,34.2038 49.9768,34.2038 C47.2388,34.2038 45.0208,36.4238 45.0208,39.1578 Z" id="Stroke-9" stroke="#C1E0F2"></path>
                    </g>
                </g>
            </g>
        </g>
    </g>
</svg>