<?xml version="1.0" encoding="UTF-8"?>
<svg width="62px" height="61px" viewBox="0 0 62 61" version="1.1" xmlns="http://www.w3.org/2000/svg" xmlns:xlink="http://www.w3.org/1999/xlink">
    <!-- Generator: Sketch 52.5 (67469) - http://www.bohemiancoding.com/sketch -->
    <title>Group 7</title>
    <desc>Created with Sketch.</desc>
    <g id="Screens" stroke="none" stroke-width="1" fill="none" fill-rule="evenodd">
        <g id="C---01-Services---01-Services" transform="translate(-1159.000000, -4490.000000)" stroke-width="2">
            <g id="Put-Out" transform="translate(155.000000, 3920.000000)">
                <g id="1" transform="translate(900.000000, 532.000000)">
                    <g id="Group-7" transform="translate(105.000000, 38.000000)">
                        <path d="M22.0164,0.431419355 L22.0164,9.4256129 C22.0164,10.8094839 22.8044,12.0810968 24.0644,12.7294839 C25.2044,13.3198065 26.5724,13.3198065 27.7104,12.7294839 L27.9344,12.6152903 C29.0744,12.0269032 30.4424,12.0269032 31.5824,12.6152903 L31.8064,12.7294839 C32.9464,13.3198065 34.3124,13.3198065 35.4524,12.7294839 C36.7144,12.0810968 37.5004,10.8094839 37.5004,9.4256129 L37.5004,0.431419355" id="Stroke-1" stroke="#3399D4"></path>
                        <path d="M24.0184,1.93587097 L6.6044,1.93587097 C4.8544,1.93587097 3.1764,2.60748387 1.9364,3.80554839 C0.6964,5.0036129 0.0004,6.63135484 0.0004,8.32683871 L0.0004,56.7294194 C0.0004,57.5771613 0.3484,58.3900645 0.9684,58.9900645 C1.5864,59.5900645 2.4284,59.9268387 3.3064,59.9268387 L56.6944,59.9268387 C57.5724,59.9268387 58.4124,59.5900645 59.0324,58.9900645 C59.6524,58.3900645 60.0004,57.5771613 60.0004,56.7294194 L60.0004,8.32683871 C60.0004,6.63135484 59.3044,5.0036129 58.0624,3.80554839 C56.8244,2.60748387 55.1464,1.93587097 53.3964,1.93587097 L34.0184,1.93587097" id="Stroke-3" stroke="#3399D4" stroke-linecap="round"></path>
                        <path d="M19.7556,50.2852258 L12.2456,50.2852258 C11.0056,50.2852258 9.9996,49.3136129 9.9996,48.1136129 L9.9996,44.7168387 C9.9996,43.5168387 11.0056,42.5432903 12.2456,42.5432903 L19.7556,42.5432903 C20.9956,42.5432903 21.9996,43.5168387 21.9996,44.7168387 L21.9996,48.1136129 C21.9996,49.3136129 20.9956,50.2852258 19.7556,50.2852258 Z" id="Stroke-5" stroke="#C1E0F2"></path>
                    </g>
                </g>
            </g>
        </g>
    </g>
</svg>