<?xml version="1.0" encoding="UTF-8"?>
<svg width="66px" height="51px" viewBox="0 0 66 51" version="1.1" xmlns="http://www.w3.org/2000/svg" xmlns:xlink="http://www.w3.org/1999/xlink">
    <!-- Generator: Sketch 52.5 (67469) - http://www.bohemiancoding.com/sketch -->
    <title>Group 17</title>
    <desc>Created with Sketch.</desc>
    <g id="Screens" stroke="none" stroke-width="1" fill="none" fill-rule="evenodd" stroke-linecap="round">
        <g id="C---01-Services---01-Services" transform="translate(-556.000000, -4495.000000)" stroke-width="2">
            <g id="Put-Out" transform="translate(155.000000, 3920.000000)">
                <g id="1" transform="translate(300.000000, 532.000000)">
                    <g id="Group-17" transform="translate(102.000000, 44.000000)">
                        <path d="M58.0014,32.0146 L6.0014,32.0146 C3.7934,32.0146 2.0014,30.2226 2.0014,28.0146 L2.0014,4.0126 C2.0014,1.8026 3.7934,0.0126 6.0014,0.0126 L58.0014,0.0126 C60.2094,0.0126 62.0014,1.8026 62.0014,4.0126 L62.0014,28.0146 C62.0014,30.2226 60.2094,32.0146 58.0014,32.0146 Z" id="Stroke-1" stroke="#3399D4"></path>
                        <path d="M37.89,14.8388 C38.69,19.0668 35.054,22.7028 30.826,21.9008 C28.478,21.4568 26.558,19.5368 26.112,17.1868 C25.312,12.9608 28.948,9.3228 33.176,10.1248 C35.524,10.5708 37.444,12.4908 37.89,14.8388 Z" id="Stroke-3" stroke="#3399D4"></path>
                        <path d="M12.0004,32.0116 L12.0004,26.0136 C12.0004,23.8036 10.2084,22.0136 8.0004,22.0136 L2.0004,22.0136" id="Stroke-5" stroke="#3399D4"></path>
                        <path d="M12.0004,-0.0002 L12.0004,5.9998 C12.0004,8.2078 10.2084,9.9998 8.0004,9.9998 L2.0004,9.9998" id="Stroke-7" stroke="#3399D4"></path>
                        <path d="M52.0316,32.0116 L52.0316,26.0136 C52.0316,23.8036 53.8216,22.0136 56.0316,22.0136 L62.0296,22.0136" id="Stroke-9" stroke="#3399D4"></path>
                        <path d="M52.0316,-0.0002 L52.0316,5.9998 C52.0316,8.2078 53.8216,9.9998 56.0316,9.9998 L62.0296,9.9998" id="Stroke-11" stroke="#3399D4"></path>
                        <path d="M64.0022,40.0194 L0.0002,40.0194" id="Stroke-13" stroke="#C1E0F2"></path>
                        <path d="M64.0022,48.0244 L0.0002,48.0244" id="Stroke-15" stroke="#C1E0F2"></path>
                    </g>
                </g>
            </g>
        </g>
    </g>
</svg>