<?xml version="1.0" encoding="UTF-8"?>
<svg width="46px" height="62px" viewBox="0 0 46 62" version="1.1" xmlns="http://www.w3.org/2000/svg" xmlns:xlink="http://www.w3.org/1999/xlink">
    <!-- Generator: Sketch 52.5 (67469) - http://www.bohemiancoding.com/sketch -->
    <title>Group 9</title>
    <desc>Created with Sketch.</desc>
    <g id="Screens" stroke="none" stroke-width="1" fill="none" fill-rule="evenodd">
        <g id="C---01-Services---01-Services" transform="translate(-1167.000000, -4248.000000)" stroke-width="2">
            <g id="Put-Out" transform="translate(155.000000, 3920.000000)">
                <g id="1" transform="translate(900.000000, 292.000000)">
                    <g id="Group-9" transform="translate(113.000000, 37.000000)">
                        <path d="M43.9996,42.0004 C43.9996,37.5824 40.4176,34.0004 35.9996,34.0004 C33.5956,34.0004 31.4656,35.0824 29.9996,36.7604 C28.5316,35.0824 26.4016,34.0004 23.9976,34.0004 C19.5796,34.0004 15.9976,37.5824 15.9976,42.0004 C15.9976,44.1904 16.8816,46.1724 18.3076,47.6164 L29.8596,60.0024 L30.1376,60.0024 L42.2016,46.9984 C43.3096,45.6244 43.9996,43.9024 43.9996,42.0004 Z" id="Stroke-1" stroke="#C1E0F2"></path>
                        <path d="M3.068,18.3088 L4.728,12.1428 C4.754,12.0468 4.776,11.9508 4.792,11.8548 L6.412,2.8348 C6.706,1.1928 8.134,0.0008 9.8,0.0008 L14.814,0.0008 C16.48,0.0008 17.906,1.1928 18.2,2.8348 L19.82,11.8548 C19.838,11.9508 19.86,12.0468 19.886,12.1428 L21.534,18.2648" id="Stroke-3" stroke="#3399D4"></path>
                        <path d="M13.9988,60.0004 L9.8128,60.0004 C8.1408,60.0004 6.7108,58.7984 6.4208,57.1524 L4.7968,47.8864 C4.7768,47.7764 4.7508,47.6664 4.7208,47.5564 L3.0808,41.6764" id="Stroke-5" stroke="#3399D4"></path>
                        <path d="M23.9996,26.0004 L23.9996,20.9224 C23.9996,19.3084 22.6916,18.0004 21.0796,18.0004 L2.9216,18.0004 C1.3076,18.0004 -0.0004,19.3084 -0.0004,20.9224 L-0.0004,39.0804 C-0.0004,40.6944 1.3076,42.0004 2.9216,42.0004 L9.9996,42.0004" id="Stroke-7" stroke="#3399D4"></path>
                    </g>
                </g>
            </g>
        </g>
    </g>
</svg>