<?xml version="1.0" encoding="UTF-8"?>
<svg width="64px" height="62px" viewBox="0 0 64 62" version="1.1" xmlns="http://www.w3.org/2000/svg" xmlns:xlink="http://www.w3.org/1999/xlink">
    <!-- Generator: Sketch 52.5 (67469) - http://www.bohemiancoding.com/sketch -->
    <title>Group 11</title>
    <desc>Created with Sketch.</desc>
    <g id="Screens" stroke="none" stroke-width="1" fill="none" fill-rule="evenodd">
        <g id="C---01-Services---01-Services" transform="translate(-859.000000, -4489.000000)" stroke="#3399D4" stroke-width="2">
            <g id="Put-Out" transform="translate(155.000000, 3920.000000)">
                <g id="1" transform="translate(600.000000, 532.000000)">
                    <g id="Group-11" transform="translate(105.000000, 38.000000)">
                        <path d="M-0.0004,-0.0002 L4.7636,-0.0002 C6.6376,-0.0002 8.2436,1.3398 8.5796,3.1858 L15.4216,40.8218 C15.7556,42.6658 17.3636,44.0078 19.2376,44.0078 L49.9996,44.0078 L56.3556,44.0078 C58.4036,44.0078 60.0976,42.4158 60.2256,40.3698 L61.9936,12.1238 C61.9976,12.0418 61.9996,11.9618 61.9996,11.8818 C61.9996,9.7398 60.2636,8.0018 58.1216,8.0018 L20.0016,8.0018" id="Stroke-1" stroke-linecap="round"></path>
                        <path d="M22.0014,44.0076 L16.0014,44.0076 C12.6874,44.0076 10.0014,46.6936 10.0014,50.0076 C10.0014,53.3236 12.6874,56.0096 16.0014,56.0096 L19.9854,55.9996" id="Stroke-3"></path>
                        <path d="M27.9848,55.9998 C27.9848,58.2078 26.1928,59.9998 23.9848,59.9998 C21.7748,59.9998 19.9848,58.2078 19.9848,55.9998 C19.9848,53.7918 21.7748,51.9998 23.9848,51.9998 C26.1928,51.9998 27.9848,53.7918 27.9848,55.9998 Z" id="Stroke-5"></path>
                        <path d="M58.0024,55.9998 C58.0024,58.2078 56.2104,59.9998 54.0024,59.9998 C51.7944,59.9998 50.0024,58.2078 50.0024,55.9998 C50.0024,53.7918 51.7944,51.9998 54.0024,51.9998 C56.2104,51.9998 58.0024,53.7918 58.0024,55.9998 Z" id="Stroke-7"></path>
                        <path d="M27.9936,56.0048 L50.0016,56.0048" id="Stroke-9"></path>
                    </g>
                </g>
            </g>
        </g>
    </g>
</svg>