<?xml version="1.0" encoding="UTF-8"?>
<svg width="66px" height="64px" viewBox="0 0 66 64" version="1.1" xmlns="http://www.w3.org/2000/svg" xmlns:xlink="http://www.w3.org/1999/xlink">
    <!-- Generator: Sketch 52.5 (67469) - http://www.bohemiancoding.com/sketch -->
    <title>Group 17</title>
    <desc>Created with Sketch.</desc>
    <g id="Screens" stroke="none" stroke-width="1" fill="none" fill-rule="evenodd" stroke-linecap="round">
        <g id="C---01-Services---01-Services" transform="translate(-256.000000, -4488.000000)" stroke-width="2">
            <g id="Put-Out" transform="translate(155.000000, 3920.000000)">
                <g id="1" transform="translate(0.000000, 532.000000)">
                    <g id="Group-17" transform="translate(102.000000, 36.000000)">
                        <path d="M57.1844,54.9992 L6.8164,54.9992 C4.1564,54.9992 2.0004,52.8432 2.0004,50.1832 L2.0004,11.8152 C2.0004,9.1552 4.1564,6.9992 6.8164,6.9992 L57.1844,6.9992 C59.8444,6.9992 62.0004,9.1552 62.0004,11.8152 L62.0004,50.1832 C62.0004,52.8432 59.8444,54.9992 57.1844,54.9992 Z" id="Stroke-1" stroke="#3399D4"></path>
                        <path d="M0.0008,62.9992 L64.0028,62.9992" id="Stroke-3" stroke="#3399D4"></path>
                        <path d="M52.0028,0.9992 L52.0028,12.9972" id="Stroke-5" stroke="#3399D4"></path>
                        <path d="M38.6688,0.9992 L38.6688,12.9972" id="Stroke-7" stroke="#3399D4"></path>
                        <path d="M25.3368,0.9992 L25.3368,12.9972" id="Stroke-9" stroke="#3399D4"></path>
                        <path d="M12.0028,0.9992 L12.0028,12.9972" id="Stroke-11" stroke="#3399D4"></path>
                        <path d="M2.0008,18.9992 L62.0008,18.9992" id="Stroke-13" stroke="#3399D4"></path>
                        <path d="M39.0516,45.0052 L32.6836,45.0052 C30.0236,45.0052 27.8676,42.8492 27.8676,40.1892 L27.8676,33.8212 C27.8676,31.1612 30.0236,29.0052 32.6836,29.0052 L39.0516,29.0052 C41.7116,29.0052 43.8676,31.1612 43.8676,33.8212 L43.8676,40.1892 C43.8676,42.8492 41.7116,45.0052 39.0516,45.0052 Z" id="Stroke-15" stroke="#C1E0F2"></path>
                    </g>
                </g>
            </g>
        </g>
    </g>
</svg>