<svg xmlns="http://www.w3.org/2000/svg" viewBox="0 0 40 39.99994"><defs><style>.cls-1{fill:#231f20;}</style></defs><title>pinterest</title><g id="Layer_2" data-name="Layer 2"><g id="Layer_1-2" data-name="Layer 1"><path class="cls-1" d="M20,0A20,20,0,1,0,40,19.99994,19.99992,19.99992,0,0,0,20,0Zm0,38.99994a19,19,0,1,1,19-19A19.02153,19.02153,0,0,1,20,38.99994Z"/><path class="cls-1" d="M18.952,9.59833c-3.48022.38849-6.94824,3.20416-7.09143,7.22632-.09,2.45575.60736,4.29816,2.94452,4.81549,1.01428-1.78918-.32715-2.18384-.53564-3.47827-.85681-5.30414,6.118-8.92139,9.76794-5.21826,2.52533,2.56415.86292,10.453-3.21033,9.63306-3.90149-.78314,1.90985-7.06281-1.20441-8.29578-2.53143-1.002-3.877,3.06512-2.67664,5.08545-.70343,3.47406-2.21857,6.7478-1.6051,11.10529,1.98956-1.44366,2.66028-4.20825,3.21027-7.09137.99994.6073,1.53363,1.23907,2.80963,1.33728,4.705.364,7.33258-4.6969,6.69049-9.36517C27.48083,11.21368,23.35028,9.1076,18.952,9.59833Z"/></g></g></svg>