<?xml version="1.0" encoding="UTF-8"?>
<svg width="59px" height="59px" viewBox="0 0 59 59" version="1.1" xmlns="http://www.w3.org/2000/svg" xmlns:xlink="http://www.w3.org/1999/xlink">
    <!-- Generator: Sketch 52.5 (67469) - http://www.bohemiancoding.com/sketch -->
    <title>Icon</title>
    <desc>Created with Sketch.</desc>
    <g id="Screens" stroke="none" stroke-width="1" fill="none" fill-rule="evenodd">
        <g id="B---01-Company---01-Company" transform="translate(-310.000000, -2551.000000)">
            <g id="Content" transform="translate(0.000000, 2267.000000)">
                <g id="What" transform="translate(155.000000, 248.000000)">
                    <g id="Icon" transform="translate(149.000000, 30.000000)">
                        <rect id="bound" x="0" y="0" width="72" height="72"></rect>
                        <path d="M7.32842712,32.3994949 L14.3994949,25.3284271 C15.9615921,23.76633 18.494252,23.76633 20.0563492,25.3284271 L27.127417,32.3994949 C28.6895142,33.9615921 28.6895142,36.494252 27.127417,38.0563492 L20.0563492,45.127417 C18.494252,46.6895142 15.9615921,46.6895142 14.3994949,45.127417 L7.32842712,38.0563492 C5.76632996,36.494252 5.76632996,33.9615921 7.32842712,32.3994949 Z M43.3284271,32.3994949 L50.3994949,25.3284271 C51.9615921,23.76633 54.494252,23.76633 56.0563492,25.3284271 L63.127417,32.3994949 C64.6895142,33.9615921 64.6895142,36.494252 63.127417,38.0563492 L56.0563492,45.127417 C54.494252,46.6895142 51.9615921,46.6895142 50.3994949,45.127417 L43.3284271,38.0563492 C41.76633,36.494252 41.76633,33.9615921 43.3284271,32.3994949 Z" id="Combined-Shape" fill="#3399D4" opacity="0.3"></path>
                        <path d="M25.3284271,50.3994949 L32.3994949,43.3284271 C33.9615921,41.76633 36.494252,41.76633 38.0563492,43.3284271 L45.127417,50.3994949 C46.6895142,51.9615921 46.6895142,54.494252 45.127417,56.0563492 L38.0563492,63.127417 C36.494252,64.6895142 33.9615921,64.6895142 32.3994949,63.127417 L25.3284271,56.0563492 C23.76633,54.494252 23.76633,51.9615921 25.3284271,50.3994949 Z M25.3284271,14.3994949 L32.3994949,7.32842712 C33.9615921,5.76632996 36.494252,5.76632996 38.0563492,7.32842712 L45.127417,14.3994949 C46.6895142,15.9615921 46.6895142,18.494252 45.127417,20.0563492 L38.0563492,27.127417 C36.494252,28.6895142 33.9615921,28.6895142 32.3994949,27.127417 L25.3284271,20.0563492 C23.76633,18.494252 23.76633,15.9615921 25.3284271,14.3994949 Z" id="Combined-Shape" fill="#3399D4"></path>
                    </g>
                </g>
            </g>
        </g>
    </g>
</svg>