<?xml version="1.0" encoding="UTF-8"?>
<svg width="66px" height="58px" viewBox="0 0 66 58" version="1.1" xmlns="http://www.w3.org/2000/svg" xmlns:xlink="http://www.w3.org/1999/xlink">
    <!-- Generator: Sketch 52.5 (67469) - http://www.bohemiancoding.com/sketch -->
    <title>Group</title>
    <desc>Created with Sketch.</desc>
    <g id="Screens" stroke="none" stroke-width="1" fill="none" fill-rule="evenodd">
        <g id="B---01-Company---01-Company" transform="translate(-1107.000000, -2552.000000)">
            <g id="Content" transform="translate(0.000000, 2267.000000)">
                <g id="Our-Works" transform="translate(955.000000, 248.000000)">
                    <g id="Group" transform="translate(149.000000, 30.000000)">
                        <rect id="Rectangle-10" x="0" y="0" width="72" height="72"></rect>
                        <path d="M46.3740377,63.9389434 L68.2226499,31.1660251 C68.4524142,30.8213786 68.3592838,30.3557266 68.0146373,30.1259623 C67.8914367,30.0438285 67.7466809,30 67.5986122,30 L51,30 L51,8.47708173 C51,8.06286817 50.6642136,7.72708173 50.25,7.72708173 C49.9992351,7.72708173 49.7650616,7.85240758 49.6259623,8.06105658 L27.7773501,40.8339749 C27.5475858,41.1786214 27.6407162,41.6442734 27.9853627,41.8740377 C28.1085633,41.9561715 28.2533191,42 28.4013878,42 L45,42 L45,63.5229183 C45,63.9371318 45.3357864,64.2729183 45.75,64.2729183 C46.0007649,64.2729183 46.2349384,64.1475924 46.3740377,63.9389434 Z" id="Path-3" fill="#3399D4"></path>
                        <path d="M13.5,15 L28.5,15 C30.9852814,15 33,17.0147186 33,19.5 C33,21.9852814 30.9852814,24 28.5,24 L13.5,24 C11.0147186,24 9,21.9852814 9,19.5 C9,17.0147186 11.0147186,15 13.5,15 Z M13.5,51 L28.5,51 C30.9852814,51 33,53.0147186 33,55.5 C33,57.9852814 30.9852814,60 28.5,60 L13.5,60 C11.0147186,60 9,57.9852814 9,55.5 C9,53.0147186 11.0147186,51 13.5,51 Z M7.5,33 L19.5,33 C21.9852814,33 24,35.0147186 24,37.5 C24,39.9852814 21.9852814,42 19.5,42 L7.5,42 C5.01471863,42 3,39.9852814 3,37.5 C3,35.0147186 5.01471863,33 7.5,33 Z" id="Combined-Shape" fill="#3399D4" opacity="0.3"></path>
                    </g>
                </g>
            </g>
        </g>
    </g>
</svg>