<?xml version="1.0" encoding="UTF-8"?>
<svg width="54px" height="54px" viewBox="0 0 54 54" version="1.1" xmlns="http://www.w3.org/2000/svg" xmlns:xlink="http://www.w3.org/1999/xlink">
    <!-- Generator: Sketch 52.5 (67469) - http://www.bohemiancoding.com/sketch -->
    <title>Group</title>
    <desc>Created with Sketch.</desc>
    <g id="Screens" stroke="none" stroke-width="1" fill="none" fill-rule="evenodd">
        <g id="B---01-Company---01-Company" transform="translate(-713.000000, -2554.000000)">
            <g id="Content" transform="translate(0.000000, 2267.000000)">
                <g id="How" transform="translate(555.000000, 248.000000)">
                    <g id="Group" transform="translate(149.000000, 30.000000)">
                        <polygon id="Bound" points="0 0 72 0 72 72 0 72"></polygon>
                        <path d="M55.5,24 C51.3578644,24 48,20.6421356 48,16.5 C48,12.3578644 51.3578644,9 55.5,9 C59.6421356,9 63,12.3578644 63,16.5 C63,20.6421356 59.6421356,24 55.5,24 Z M55.5,63 C51.3578644,63 48,59.6421356 48,55.5 C48,51.3578644 51.3578644,48 55.5,48 C59.6421356,48 63,51.3578644 63,55.5 C63,59.6421356 59.6421356,63 55.5,63 Z M16.5,63 C12.3578644,63 9,59.6421356 9,55.5 C9,51.3578644 12.3578644,48 16.5,48 C20.6421356,48 24,51.3578644 24,55.5 C24,59.6421356 20.6421356,63 16.5,63 Z" id="Combined-Shape" fill="#3399D4" opacity="0.3"></path>
                        <path d="M16.5,24 C12.3578644,24 9,20.6421356 9,16.5 C9,12.3578644 12.3578644,9 16.5,9 C20.6421356,9 24,12.3578644 24,16.5 C24,20.6421356 20.6421356,24 16.5,24 Z M33,12 L39,12 C40.6568542,12 42,13.3431458 42,15 C42,16.6568542 40.6568542,18 39,18 L33,18 C31.3431458,18 30,16.6568542 30,15 C30,13.3431458 31.3431458,12 33,12 Z M33,54 L39,54 C40.6568542,54 42,55.3431458 42,57 C42,58.6568542 40.6568542,60 39,60 L33,60 C31.3431458,60 30,58.6568542 30,57 C30,55.3431458 31.3431458,54 33,54 Z M15,30 C16.6568542,30 18,31.3431458 18,33 L18,39 C18,40.6568542 16.6568542,42 15,42 C13.3431458,42 12,40.6568542 12,39 L12,33 C12,31.3431458 13.3431458,30 15,30 Z M57,30 C58.6568542,30 60,31.3431458 60,33 L60,39 C60,40.6568542 58.6568542,42 57,42 C55.3431458,42 54,40.6568542 54,39 L54,33 C54,31.3431458 55.3431458,30 57,30 Z" id="Combined-Shape" fill="#3399D4"></path>
                    </g>
                </g>
            </g>
        </g>
    </g>
</svg>