<?xml version="1.0" encoding="UTF-8"?>
<svg width="18px" height="12px" viewBox="0 0 18 12" version="1.1" xmlns="http://www.w3.org/2000/svg" xmlns:xlink="http://www.w3.org/1999/xlink">
    <!-- Generator: Sketch 52.5 (67469) - http://www.bohemiancoding.com/sketch -->
    <title>Group</title>
    <desc>Created with Sketch.</desc>
    <g id="Screens" stroke="none" stroke-width="1" fill="none" fill-rule="evenodd">
        <g id="A---01-Homepage---01-Home" transform="translate(-788.000000, -1694.000000)">
            <g id="01" transform="translate(755.000000, 1658.000000)">
                <g id="Group" transform="translate(30.000000, 30.000000)">
                    <rect id="bound" x="0" y="0" width="24" height="24"></rect>
                    <path d="M3,12 C3,12 5.45454545,6 12,6 C16.9090909,6 21,12 21,12 C21,12 16.9090909,18 12,18 C5.45454545,18 3,12 3,12 Z" id="Shape" fill="#3399D4" fill-rule="nonzero" opacity="0.3"></path>
                    <path d="M12,15 C10.3431458,15 9,13.6568542 9,12 C9,10.3431458 10.3431458,9 12,9 C13.6568542,9 15,10.3431458 15,12 C15,13.6568542 13.6568542,15 12,15 Z" id="Path" fill="#3399D4"></path>
                </g>
            </g>
        </g>
    </g>
</svg>