<svg xmlns="http://www.w3.org/2000/svg" viewBox="0 0 40 40"><defs><style>.cls-1{fill:#231f20;}</style></defs><title>twtr</title><g id="Layer_2" data-name="Layer 2"><g id="Layer_1-2" data-name="Layer 1"><path class="cls-1" d="M20,0A20,20,0,1,0,40,20,20,20,0,0,0,20,0Zm0,39A19,19,0,1,1,39,20,19.02153,19.02153,0,0,1,20,39Z"/><path class="cls-1" d="M27.91132,13.561a6.96418,6.96418,0,0,1-2.18207.81964,3.45723,3.45723,0,0,0-2.50769-1.06635,3.40613,3.40613,0,0,0-3.43622,3.37488,3.31815,3.31815,0,0,0,.08929.76917,9.812,9.812,0,0,1-7.08282-3.52618,3.31413,3.31413,0,0,0-.46515,1.69739,3.35818,3.35818,0,0,0,1.52863,2.80969,3.48074,3.48074,0,0,1-1.55634-.42255l-.00049.04321a3.39249,3.39249,0,0,0,2.75684,3.309A3.45085,3.45085,0,0,1,14.15,21.487a3.37693,3.37693,0,0,1-.64606-.06024,3.4335,3.4335,0,0,0,3.20917,2.345,6.9713,6.9713,0,0,1-4.26752,1.44458,7.06529,7.06529,0,0,1-.81927-.0473,9.85558,9.85558,0,0,0,5.26727,1.51666,9.61859,9.61859,0,0,0,9.77582-9.60358c0-.1463-.00269-.29218-.01-.43671a6.90115,6.90115,0,0,0,1.71442-1.74872,6.91916,6.91916,0,0,1-1.974.5307A3.39156,3.39156,0,0,0,27.91132,13.561Z"/></g></g></svg>