<svg xmlns="http://www.w3.org/2000/svg" viewBox="0 0 40 39.99994"><defs><style>.cls-1{fill:#010101;}</style></defs><title>youtube</title><g id="Layer_2" data-name="Layer 2"><g id="Layer_1-2" data-name="Layer 1"><path class="cls-1" d="M20,0A20,20,0,1,0,40,19.99994,19.99992,19.99992,0,0,0,20,0Zm0,38.99994a19,19,0,1,1,19-19A19.02153,19.02153,0,0,1,20,38.99994Z"/><path class="cls-1" d="M25.46967,14.27588H14.53033a2.79848,2.79848,0,0,0-2.79846,2.79846V22.9256a2.79848,2.79848,0,0,0,2.79846,2.79846H25.46967a2.79848,2.79848,0,0,0,2.79846-2.79846V17.07434A2.79848,2.79848,0,0,0,25.46967,14.27588Zm-2.1759,5.78333a.127.127,0,0,1-.05518.05524v-.00256l-4.96088,2.54407A.12726.12726,0,0,1,18.092,22.544V17.45593a.12717.12717,0,0,1,.18573-.11194l4.96088,2.544A.1272.1272,0,0,1,23.29376,20.0592Z"/></g></g></svg>