<?xml version="1.0" encoding="utf-8"?>
<!-- Generator: Adobe Illustrator 15.0.2, SVG Export Plug-In . SVG Version: 6.00 Build 0)  -->
<!DOCTYPE svg PUBLIC "-//W3C//DTD SVG 1.1//EN" "http://www.w3.org/Graphics/SVG/1.1/DTD/svg11.dtd">
<svg version="1.1" id="Layer_1" xmlns="http://www.w3.org/2000/svg" xmlns:xlink="http://www.w3.org/1999/xlink" x="0px" y="0px"
	 width="100px" height="45px" viewBox="0 0 100 45" enable-background="new 0 0 100 45" xml:space="preserve">
<g>
	<path fill="#926C9E" d="M0.911,19.57h1.98v21.332h-1.98V19.57z"/>
	<path fill="#926C9E" d="M7.693,19.174c0.451,0,0.836,0.161,1.155,0.481c0.319,0.321,0.479,0.708,0.479,1.16
		c0,0.443-0.16,0.825-0.479,1.146c-0.319,0.321-0.705,0.481-1.155,0.481c-0.441,0-0.822-0.16-1.141-0.481
		c-0.319-0.32-0.479-0.702-0.479-1.146c0-0.453,0.16-0.839,0.479-1.16C6.872,19.334,7.252,19.174,7.693,19.174z M6.71,25.511h1.98
		v15.391H6.71V25.511z"/>
	<path fill="#926C9E" d="M12.51,19.57h1.98v21.332h-1.98V19.57z"/>
	<path fill="#926C9E" d="M33.94,25.511v15.391h-1.952v-2.646c-0.83,1.01-1.761,1.769-2.794,2.277
		c-1.032,0.51-2.162,0.765-3.388,0.765c-2.178,0-4.039-0.79-5.581-2.37c-1.542-1.579-2.313-3.501-2.313-5.764
		c0-2.216,0.778-4.111,2.334-5.687s3.428-2.362,5.616-2.362c1.264,0,2.407,0.269,3.43,0.806c1.023,0.538,1.921,1.344,2.695,2.419
		v-2.829H33.94z M26.026,27.024c-1.102,0-2.119,0.271-3.052,0.813c-0.933,0.542-1.675,1.303-2.226,2.282s-0.826,2.016-0.826,3.108
		c0,1.083,0.278,2.119,0.833,3.108c0.555,0.989,1.302,1.759,2.239,2.311c0.937,0.551,1.943,0.826,3.017,0.826
		c1.083,0,2.11-0.273,3.08-0.819c0.97-0.547,1.717-1.286,2.24-2.219c0.522-0.933,0.784-1.982,0.784-3.15
		c0-1.78-0.586-3.269-1.759-4.465S27.74,27.024,26.026,27.024z"/>
</g>
<g>
	<g>
		<path fill="#926C9E" d="M64.918,15.562L58.3,15.501c-7.17-0.517-13.172-5.876-7.706-12.154
			C50.594,3.347,58.47-6.941,64.918,15.562z"/>
	</g>
	<g>
		<path fill="#926C9E" d="M65.722,15.562l6.158-0.011c7.252-0.332,16.417-1.775,10.811-9.543c0,0-6.289-9.866-17.255,9.555"/>
	</g>
</g>
<g>
	<path fill="#926C9E" d="M33.722,16.759v6.381h2.167v19.672H97.01v-19.73h2.166v-6.323H33.722z M48.862,40.902l-7.751-6.93v6.93
		h-1.98V19.572h1.98v12.152l7.136-6.212h2.907l-8.459,7.345l8.955,8.046H48.862z M66.898,33.066c0,2.121-0.247,3.719-0.743,4.797
		c-0.496,1.071-1.241,1.913-2.235,2.522s-2.242,0.912-3.741,0.912s-2.751-0.303-3.755-0.912c-1.005-0.609-1.755-1.457-2.25-2.548
		c-0.495-1.085-0.743-2.724-0.743-4.911v-7.415h1.98v7.185c0,1.755,0.096,2.963,0.283,3.623c0.284,0.944,0.825,1.69,1.622,2.235
		c0.799,0.546,1.749,0.82,2.854,0.82c1.104,0,2.042-0.269,2.813-0.798c0.771-0.535,1.301-1.233,1.595-2.104
		c0.197-0.593,0.297-1.85,0.297-3.776v-7.185h2.023V33.066z M78.143,27.225h-3.138v13.678h-1.982V27.225h-2.701v-1.713h2.701v-5.713
		h1.982v5.713h3.138V27.225z M94.324,33.066c0,2.121-0.245,3.719-0.739,4.797c-0.498,1.071-1.244,1.913-2.235,2.522
		c-0.999,0.609-2.242,0.912-3.741,0.912s-2.752-0.303-3.757-0.912s-1.754-1.457-2.252-2.548c-0.491-1.085-0.739-2.724-0.739-4.911
		v-7.415h1.977v7.185c0,1.755,0.096,2.963,0.287,3.623c0.281,0.944,0.823,1.69,1.62,2.235c0.798,0.546,1.751,0.82,2.857,0.82
		c1.104,0,2.041-0.269,2.81-0.798c0.769-0.535,1.302-1.233,1.595-2.104c0.198-0.593,0.297-1.85,0.297-3.776v-7.185h2.021V33.066z"/>
</g>
</svg>
