<?xml version="1.0" encoding="UTF-8"?>
<svg width="118px" height="20px" viewBox="0 0 118 20" version="1.1" xmlns="http://www.w3.org/2000/svg" xmlns:xlink="http://www.w3.org/1999/xlink">
    <!-- Generator: Sketch 52.5 (67469) - http://www.bohemiancoding.com/sketch -->
    <title>Logo</title>
    <desc>Created with Sketch.</desc>
    <g id="Screens" stroke="none" stroke-width="1" fill="none" fill-rule="evenodd">
        <g id="A---01-Homepage---01-Home" transform="translate(-155.000000, -60.000000)" fill="#16232B">
            <g id="Hero" transform="translate(155.000000, 60.000000)">
                <g id="Navigation">
                    <path d="M96.1121192,10.2142594 C96.7114647,10.1533374 96.7829878,10.4061181 96.7196129,10.8962218 C95.8721999,17.4021438 88.7769269,21.6739567 82.6938415,19.3680142 C78.956533,17.9513509 76.3943762,14.3069435 76.480385,10.2906392 C76.5980812,4.88404074 80.6341572,0.930476997 85.3546821,0.146674802 C89.5908417,-0.558019747 93.2213183,1.30328314 95.5408397,5.15409787 C96.276894,6.37253748 96.2777993,6.37617461 95.0619065,7.08359701 C91.3879729,9.22132202 87.7176606,11.3690491 84.0283359,13.4804049 C83.4516243,13.8095655 83.4950814,13.9677808 83.9749199,14.3305848 C85.7340262,15.6608663 88.1377457,15.4590054 90.0136428,13.8022912 C90.881879,13.0366747 91.4232817,12.0910201 91.6034475,10.948051 C91.6469046,10.6725382 91.7093742,10.5343271 92.0199112,10.5161414 C93.386093,10.4333966 94.7513695,10.3506519 96.1121192,10.2142594 Z M82.5082436,10.5061393 C84.7951722,9.17585786 87.0802902,7.84102999 89.375367,6.52984349 C89.8153699,6.27979058 89.8751234,6.13157741 89.4324044,5.80878184 C87.9213657,4.70400264 86.3252235,4.4994139 84.639451,5.31958743 C82.8260235,6.2025015 81.6861806,7.57006357 81.6762216,9.69324005 C81.6762216,9.81326544 81.6744109,9.93147227 81.677127,10.0496791 C81.6943288,10.9671459 81.7060984,10.9716924 82.5082436,10.5061393 Z M118,11.3804152 C117.720245,11.7286707 117.770945,12.1769474 117.641479,12.5724856 C116.271676,16.7551887 113.427048,19.1857029 109.086773,19.8194734 C104.839749,20.4368767 100.1998,18.2427762 98.3175658,13.9364105 C95.7861911,8.14063883 99.3152679,1.6892739 105.534157,0.437190813 C110.242007,-0.511191657 114.48903,1.43194673 116.772338,5.39369402 C117.320983,6.34480434 117.660492,7.37320374 117.856048,8.45161372 C117.880493,8.58345979 117.829793,8.74349365 118,8.8171456 L118,11.3804152 Z M107.707916,15.1066581 C110.650322,15.1175695 112.55338,13.1480619 112.632146,10.1674313 C112.712722,7.1740707 110.745384,4.96724016 107.850962,4.93450596 C104.668636,4.89995319 102.860641,7.4023008 102.836196,9.93374548 C102.805414,13.151699 104.651435,15.0948374 107.707916,15.1066581 Z M4.70423316,3.19450146 C4.95592206,2.82624172 5.12341288,2.54891032 5.32078043,2.29612957 C6.32934675,1.0049473 7.67198934,0.362993296 9.28714401,0.264790701 C10.8036149,0.172043806 12.2983573,0.218417253 13.7451158,0.785810025 C14.9030658,1.24045167 15.8555,1.93969052 16.5662043,2.95717852 C16.8360003,3.3445332 16.9808572,3.50911347 17.3221764,2.97900132 C18.3497551,1.38139058 19.8951974,0.579402719 21.733975,0.346626197 C23.3799117,0.139309607 25.0349021,0.0892990263 26.6373817,0.631231866 C29.3099919,1.53415017 30.6526345,3.55912406 31.2030908,6.21695911 C31.4104173,7.21444288 31.5199653,8.22465661 31.5172493,9.24850959 C31.5091011,12.3818998 31.5000475,15.5143807 31.5281136,18.6459524 C31.5335457,19.2188009 31.3642442,19.3697419 30.8119771,19.3533748 C29.5607755,19.3133663 28.3068578,19.3070013 27.0556561,19.3533748 C26.4282446,19.3761069 26.2118645,19.2260751 26.2200127,18.5450219 C26.2535109,15.7216973 26.2417413,12.8974634 26.2000949,10.0741388 C26.1865146,9.20486399 26.1131808,8.33013347 25.8442901,7.48177216 C25.3119409,5.80960019 24.439178,5.06762503 22.8204019,4.97851527 C20.9761922,4.87849411 19.6788174,5.60046504 19.0088541,7.09623605 C18.6566707,7.88367538 18.4574925,8.70839532 18.4547764,9.57130516 C18.4430068,12.58467 18.4303318,15.5998534 18.4475336,18.6123089 C18.451155,19.1569696 18.3244052,19.3706512 17.7395454,19.3533748 C16.417726,19.3115477 15.0922851,19.3142756 13.7704657,19.3533748 C13.2172934,19.3679233 13.0507079,19.2169823 13.05614,18.6450431 C13.0833007,15.7262437 13.0742471,12.8065351 13.0597614,9.88773574 C13.05614,9.01027737 12.9031349,8.15191395 12.6541621,7.30446192 C12.2458466,5.90962136 11.317857,5.15218838 9.91455555,5.00306592 C8.48409345,4.85121561 7.1713276,5.11945418 6.26868791,6.38881365 C5.46292129,7.51996206 5.29361976,8.84296925 5.28003942,10.1777971 C5.25106804,13.0011217 5.25468946,15.8262649 5.2845662,18.6486802 C5.29090369,19.2242566 5.1188861,19.367014 4.56933515,19.3533748 C3.2239765,19.3151849 1.87590178,19.3270056 0.529637764,19.3470098 C0.130375874,19.3533748 -0.000900710398,19.2242566 4.64535993e-06,18.8205348 C0.00996355869,12.9820268 0.00905820294,7.14351878 0.000910001118,1.30592007 C0.000910001118,0.934932485 0.120416961,0.805814258 0.488896755,0.813088524 C1.50470591,0.830364906 2.52142043,0.832183473 3.53722959,0.812179241 C3.89031834,0.803995691 4.0424181,0.95311815 4.13023761,1.27227658 C4.29682307,1.8805871 4.48966385,2.48162336 4.70423316,3.19450146 Z M53.6523827,9.70915251 C53.6686791,14.9157086 49.8987778,19.179338 44.9935603,19.7931042 C41.0099949,20.29321 37.6275858,19.1002303 35.1795039,15.8659097 C31.578904,11.1094488 32.9876376,4.59261544 38.14726,1.59925486 C43.8645816,-1.71871986 51.2115436,0.995490752 53.2277709,7.168615 C53.5310651,8.09972109 53.6786381,9.05264997 53.6523827,9.70915251 Z M43.3648253,15.1066581 C46.0926622,15.2639641 48.2899606,13.3035493 48.3542408,10.0464966 C48.4139943,7.05313602 46.4258331,5.04907565 43.5513285,4.94450807 C40.3753406,4.82721053 38.5094023,7.55324183 38.5519541,9.94647544 C38.6089915,13.2035282 40.3038174,15.0866539 43.3648253,15.1066581 Z M60.4649132,3.09775371 C60.8379198,2.88679999 60.942941,2.54854661 61.1584157,2.3039494 C62.1597392,1.16734529 63.4245212,0.545395524 64.9038725,0.3562646 C66.9391122,0.095300296 68.9625823,0.116213812 70.8955169,0.902743856 C73.5328182,1.9775167 74.817518,4.1106953 75.3127476,6.81217595 C75.5743954,8.23793214 75.6124204,9.68187401 75.6033668,11.1303623 C75.5852597,13.6681719 75.5861651,16.2068909 75.608799,18.7456098 C75.611515,19.2184371 75.4684688,19.3575575 75.0067374,19.3484646 C73.6858233,19.3230047 72.3621932,19.3148212 71.0403738,19.3511925 C70.4926336,19.3684689 70.3106571,19.2266207 70.3169946,18.6492258 C70.3477767,15.895916 70.3305749,13.1435155 70.3296695,10.391115 C70.3296695,9.75007025 70.24185,9.11902765 70.1123842,8.49253147 C69.5103226,5.55827429 67.3193616,4.65808384 64.7599209,5.04816637 C62.0628661,5.45916242 60.723845,7.09314448 60.5572595,9.84918213 C60.3798098,12.7634351 60.5056542,15.6804159 60.4875471,18.5964874 C60.484831,19.1838844 60.334542,19.372106 59.7379125,19.3530111 C58.3925539,19.3093655 57.0462899,19.3266418 55.6991205,19.3466461 C55.2971425,19.3530111 55.1758249,19.221165 55.1767302,18.8192618 C55.1857838,12.9834816 55.1866891,7.1467922 55.1749195,1.31101205 C55.1740142,0.870918941 55.3596121,0.807269111 55.7271865,0.812724811 C56.8833258,0.82909191 58.0421812,0.835456893 59.1992259,0.809087678 C59.581286,0.800904128 59.74425,0.96184727 59.8501766,1.29464495 C60.039396,1.89113479 60.25306,2.48035036 60.4649132,3.09775371 Z" id="Logo"></path>
                </g>
            </g>
        </g>
    </g>
</svg>