<?xml version="1.0" encoding="UTF-8"?>
<svg width="118px" height="20px" viewBox="0 0 118 20" version="1.1" xmlns="http://www.w3.org/2000/svg" xmlns:xlink="http://www.w3.org/1999/xlink">
    <!-- Generator: Sketch 52.5 (67469) - http://www.bohemiancoding.com/sketch -->
    <title>Logo</title>
    <desc>Created with Sketch.</desc>
    <g id="Screens" stroke="none" stroke-width="1" fill="none" fill-rule="evenodd">
        <g id="B---01-Company---01.01-Mouse-Over" transform="translate(-155.000000, -36.000000)" fill="#FFFFFF">
            <path d="M251.112119,46.2142594 C251.711465,46.1533374 251.782988,46.4061181 251.719613,46.8962218 C250.8722,53.4021438 243.776927,57.6739567 237.693842,55.3680142 C233.956533,53.9513509 231.394376,50.3069435 231.480385,46.2906392 C231.598081,40.8840407 235.634157,36.930477 240.354682,36.1466748 C244.590842,35.4419803 248.221318,37.3032831 250.54084,41.1540979 C251.276894,42.3725375 251.277799,42.3761746 250.061907,43.083597 C246.387973,45.221322 242.717661,47.3690491 239.028336,49.4804049 C238.451624,49.8095655 238.495081,49.9677808 238.97492,50.3305848 C240.734026,51.6608663 243.137746,51.4590054 245.013643,49.8022912 C245.881879,49.0366747 246.423282,48.0910201 246.603448,46.948051 C246.646905,46.6725382 246.709374,46.5343271 247.019911,46.5161414 C248.386093,46.4333966 249.751369,46.3506519 251.112119,46.2142594 Z M237.508244,46.5061393 C239.795172,45.1758579 242.08029,43.84103 244.375367,42.5298435 C244.81537,42.2797906 244.875123,42.1315774 244.432404,41.8087818 C242.921366,40.7040026 241.325223,40.4994139 239.639451,41.3195874 C237.826023,42.2025015 236.686181,43.5700636 236.676222,45.69324 C236.676222,45.8132654 236.674411,45.9314723 236.677127,46.0496791 C236.694329,46.9671459 236.706098,46.9716924 237.508244,46.5061393 Z M273,47.3804152 C272.720245,47.7286707 272.770945,48.1769474 272.641479,48.5724856 C271.271676,52.7551887 268.427048,55.1857029 264.086773,55.8194734 C259.839749,56.4368767 255.1998,54.2427762 253.317566,49.9364105 C250.786191,44.1406388 254.315268,37.6892739 260.534157,36.4371908 C265.242007,35.4888083 269.48903,37.4319467 271.772338,41.393694 C272.320983,42.3448043 272.660492,43.3732037 272.856048,44.4516137 C272.880493,44.5834598 272.829793,44.7434937 273,44.8171456 L273,47.3804152 Z M262.707916,51.1066581 C265.650322,51.1175695 267.55338,49.1480619 267.632146,46.1674313 C267.712722,43.1740707 265.745384,40.9672402 262.850962,40.934506 C259.668636,40.8999532 257.860641,43.4023008 257.836196,45.9337455 C257.805414,49.151699 259.651435,51.0948374 262.707916,51.1066581 Z M159.704233,39.1945015 C159.955922,38.8262417 160.123413,38.5489103 160.32078,38.2961296 C161.329347,37.0049473 162.671989,36.3629933 164.287144,36.2647907 C165.803615,36.1720438 167.298357,36.2184173 168.745116,36.78581 C169.903066,37.2404517 170.8555,37.9396905 171.566204,38.9571785 C171.836,39.3445332 171.980857,39.5091135 172.322176,38.9790013 C173.349755,37.3813906 174.895197,36.5794027 176.733975,36.3466262 C178.379912,36.1393096 180.034902,36.089299 181.637382,36.6312319 C184.309992,37.5341502 185.652635,39.5591241 186.203091,42.2169591 C186.410417,43.2144429 186.519965,44.2246566 186.517249,45.2485096 C186.509101,48.3818998 186.500048,51.5143807 186.528114,54.6459524 C186.533546,55.2188009 186.364244,55.3697419 185.811977,55.3533748 C184.560775,55.3133663 183.306858,55.3070013 182.055656,55.3533748 C181.428245,55.3761069 181.211865,55.2260751 181.220013,54.5450219 C181.253511,51.7216973 181.241741,48.8974634 181.200095,46.0741388 C181.186515,45.204864 181.113181,44.3301335 180.84429,43.4817722 C180.311941,41.8096002 179.439178,41.067625 177.820402,40.9785153 C175.976192,40.8784941 174.678817,41.600465 174.008854,43.096236 C173.656671,43.8836754 173.457492,44.7083953 173.454776,45.5713052 C173.443007,48.58467 173.430332,51.5998534 173.447534,54.6123089 C173.451155,55.1569696 173.324405,55.3706512 172.739545,55.3533748 C171.417726,55.3115477 170.092285,55.3142756 168.770466,55.3533748 C168.217293,55.3679233 168.050708,55.2169823 168.05614,54.6450431 C168.083301,51.7262437 168.074247,48.8065351 168.059761,45.8877357 C168.05614,45.0102774 167.903135,44.1519139 167.654162,43.3044619 C167.245847,41.9096214 166.317857,41.1521884 164.914556,41.0030659 C163.484093,40.8512156 162.171328,41.1194542 161.268688,42.3888136 C160.462921,43.5199621 160.29362,44.8429692 160.280039,46.1777971 C160.251068,49.0011217 160.254689,51.8262649 160.284566,54.6486802 C160.290904,55.2242566 160.118886,55.367014 159.569335,55.3533748 C158.223976,55.3151849 156.875902,55.3270056 155.529638,55.3470098 C155.130376,55.3533748 154.999099,55.2242566 155.000005,54.8205348 C155.009964,48.9820268 155.009058,43.1435188 155.00091,37.3059201 C155.00091,36.9349325 155.120417,36.8058143 155.488897,36.8130885 C156.504706,36.8303649 157.52142,36.8321835 158.53723,36.8121792 C158.890318,36.8039957 159.042418,36.9531182 159.130238,37.2722766 C159.296823,37.8805871 159.489664,38.4816234 159.704233,39.1945015 Z M208.652383,45.7091525 C208.668679,50.9157086 204.898778,55.179338 199.99356,55.7931042 C196.009995,56.29321 192.627586,55.1002303 190.179504,51.8659097 C186.578904,47.1094488 187.987638,40.5926154 193.14726,37.5992549 C198.864582,34.2812801 206.211544,36.9954908 208.227771,43.168615 C208.531065,44.0997211 208.678638,45.05265 208.652383,45.7091525 Z M198.364825,51.1066581 C201.092662,51.2639641 203.289961,49.3035493 203.354241,46.0464966 C203.413994,43.053136 201.425833,41.0490757 198.551329,40.9445081 C195.375341,40.8272105 193.509402,43.5532418 193.551954,45.9464754 C193.608991,49.2035282 195.303817,51.0866539 198.364825,51.1066581 Z M215.464913,39.0977537 C215.83792,38.8868 215.942941,38.5485466 216.158416,38.3039494 C217.159739,37.1673453 218.424521,36.5453955 219.903872,36.3562646 C221.939112,36.0953003 223.962582,36.1162138 225.895517,36.9027439 C228.532818,37.9775167 229.817518,40.1106953 230.312748,42.8121759 C230.574395,44.2379321 230.61242,45.681874 230.603367,47.1303623 C230.58526,49.6681719 230.586165,52.2068909 230.608799,54.7456098 C230.611515,55.2184371 230.468469,55.3575575 230.006737,55.3484646 C228.685823,55.3230047 227.362193,55.3148212 226.040374,55.3511925 C225.492634,55.3684689 225.310657,55.2266207 225.316995,54.6492258 C225.347777,51.895916 225.330575,49.1435155 225.32967,46.391115 C225.32967,45.7500703 225.24185,45.1190277 225.112384,44.4925315 C224.510323,41.5582743 222.319362,40.6580838 219.759921,41.0481664 C217.062866,41.4591624 215.723845,43.0931445 215.557259,45.8491821 C215.37981,48.7634351 215.505654,51.6804159 215.487547,54.5964874 C215.484831,55.1838844 215.334542,55.372106 214.737913,55.3530111 C213.392554,55.3093655 212.04629,55.3266418 210.69912,55.3466461 C210.297143,55.3530111 210.175825,55.221165 210.17673,54.8192618 C210.185784,48.9834816 210.186689,43.1467922 210.17492,37.3110121 C210.174014,36.8709189 210.359612,36.8072691 210.727187,36.8127248 C211.883326,36.8290919 213.042181,36.8354569 214.199226,36.8090877 C214.581286,36.8009041 214.74425,36.9618473 214.850177,37.294645 C215.039396,37.8911348 215.25306,38.4803504 215.464913,39.0977537 Z" id="Logo"></path>
        </g>
    </g>
</svg>