<?xml version="1.0" encoding="UTF-8"?>
<svg width="16px" height="16px" viewBox="0 0 16 16" version="1.1" xmlns="http://www.w3.org/2000/svg" xmlns:xlink="http://www.w3.org/1999/xlink">
    <!-- Generator: Sketch 52.5 (67469) - http://www.bohemiancoding.com/sketch -->
    <title>Loupe Icon</title>
    <desc>Created with Sketch.</desc>
    <g id="Screens" stroke="none" stroke-width="1" fill="none" fill-rule="evenodd">
        <g id="G---01-Blog---01-Home" transform="translate(-1297.000000, -167.000000)" fill="#FFFFFF" fill-rule="nonzero">
            <path d="M1311.29499,182.703484 C1311.68548,183.098839 1312.31665,183.098839 1312.70713,182.703484 C1313.09762,182.308128 1313.09762,181.668554 1312.70713,181.273199 L1309.62569,178.1935 C1310.49718,177.025464 1311.01311,175.576539 1311.01311,174.007103 C1311.01311,170.137187 1307.87617,167 1304.00656,167 C1300.13694,167 1297,170.137187 1297,174.007103 C1297,177.877019 1300.13694,181.014206 1304.00656,181.014206 C1305.58177,181.014206 1307.03558,180.494346 1308.2058,179.616821 L1311.29499,182.703484 Z M1299.00187,174.007103 C1299.00187,171.242877 1301.24255,169.002029 1304.00656,169.002029 C1306.77057,169.002029 1309.01124,171.242877 1309.01124,174.007103 C1309.01124,176.771329 1306.77057,179.012177 1304.00656,179.012177 C1301.24255,179.012177 1299.00187,176.771329 1299.00187,174.007103 Z" id="Loupe-Icon"></path>
        </g>
    </g>
</svg>