<svg xmlns="http://www.w3.org/2000/svg" viewBox="0 0 151.41 91.7"><g data-name="Layer 2"><path d="M129.3 91.7a3.7 3.7 0 0 1-2.74-.76c-.61-.59-.87-1.59-.85-3.23.15-12.68.12-25.9-.1-40.44a42.64 42.64 0 0 0-1.7-12.34c-2.56-8-6.72-11.44-14.38-11.86h-1.63c-8 0-13.52 3.38-16.53 10.08a28.77 28.77 0 0 0-2.64 11.76v2c0 13.51-.1 27.47 0 41.21 0 1.56-.22 2.42-.78 3a3.61 3.61 0 0 1-2.75.7c-6.1-.2-12.5-.2-19 0a3.76 3.76 0 0 1-2.87-.82c-.53-.53-.75-1.37-.73-2.83.13-14.11.08-28.38 0-41.8a44.22 44.22 0 0 0-1.94-12.3c-1.92-6.51-6.31-10.18-13-10.89-8-.86-13.56 1.23-17.37 6.56-4.05 5.67-4.66 12.29-4.71 18-.14 13-.13 26.64 0 40.44 0 1.45-.21 2.29-.73 2.81s-1.37.71-2.83.67c-6.57-.18-13.17-.11-19.36 0a2.75 2.75 0 0 1-2.07-.56A2.78 2.78 0 0 1 0 89C.05 62.46.05 34.33 0 5.41a2.59 2.59 0 0 1 .56-1.95 2.5 2.5 0 0 1 1.91-.53c5.06.1 10 .09 14.61 0h.13c1.58 0 2.39.65 2.84 2.29.55 2 1.18 4.07 1.85 6.23.27.87.54 1.76.82 2.69.35-.51.67-1 1-1.43.66-1 1.23-1.84 1.86-2.65C30.23 4.08 36.66.8 44.64.32c6.44-.39 14-.4 21.43 2.49a28.76 28.76 0 0 1 13.58 10.42c.68 1 1.21 1.65 1.75 1.65.45 0 1-.5 1.66-1.55C87.71 6.15 94.85 1.9 104.31.71c7-.88 15.32-1.41 23.57 1.36 11.86 4 19.05 12.75 22 26.76a70.87 70.87 0 0 1 1.51 14.5v1c0 14.39-.07 29.27.06 43.91 0 1.45-.21 2.3-.74 2.82s-1.37.71-2.83.67c-6.44-.2-12.33-.2-18 0zm-21.4-68.92h1.64c7.78.43 12 3.91 14.61 12a42.83 42.83 0 0 1 1.71 12.41c.22 14.54.25 27.76.1 40.44 0 1.57.22 2.51.77 3.05s1.46.74 3.11.68c5.67-.21 11.56-.21 18 0 1.38 0 2.16-.13 2.64-.6s.68-1.26.67-2.64c-.13-14.63-.09-29.52-.06-43.91v-1a70.33 70.33 0 0 0-1.51-14.45c-2.9-13.92-10-22.61-21.81-26.57C119.6-.45 111.34.08 104.34 1 95 2.14 87.88 6.35 83.28 13.47c-.74 1.14-1.32 1.65-1.87 1.66-.66 0-1.2-.7-1.94-1.76A28.49 28.49 0 0 0 66 3.05C58.62.17 51.07.18 44.66.57c-7.91.48-14.28 3.72-18.92 9.65-.63.79-1.2 1.65-1.85 2.63l-1.11 1.65-.14.21-.08-.25-.9-2.94c-.67-2.16-1.29-4.2-1.85-6.23-.42-1.53-1.13-2.11-2.6-2.11h-.12c-4.64.09-9.56.09-14.62 0a2.35 2.35 0 0 0-1.73.45 2.35 2.35 0 0 0-.48 1.78C.3 34.33.3 62.46.25 89a2.61 2.61 0 0 0 .51 1.9 2.52 2.52 0 0 0 1.9.49c6.2-.09 12.8-.16 19.38 0 1.38 0 2.17-.14 2.64-.6a3.56 3.56 0 0 0 .66-2.63c-.15-13.8-.16-27.41 0-40.44.04-5.72.66-12.39 4.74-18.12 3.81-5.33 9.57-7.51 17.59-6.66C54.51 23.66 59 27.39 60.92 34a44.35 44.35 0 0 1 1.95 12.37c.06 13.42.11 27.69 0 41.81 0 1.38.18 2.17.66 2.64a3.52 3.52 0 0 0 2.63.6c6.53-.19 12.93-.19 19 0a3.44 3.44 0 0 0 2.57-.63c.5-.49.7-1.3.7-2.78-.08-13.74 0-27.71 0-41.21v-2A29 29 0 0 1 91.15 33c3.05-6.79 8.68-10.22 16.75-10.22z" fill="rgba(75,179,231,.25)" data-name="Layer 1"/></g></svg>