<svg xmlns="http://www.w3.org/2000/svg" viewBox="0 0 256 145"><g fill="none" fill-rule="evenodd"><path fill="#364548" d="M147.488 45.732h22.866v23.375h11.56c5.34 0 10.832-.95 15.888-2.664 2.485-.843 5.273-2.015 7.724-3.49-3.228-4.214-4.876-9.535-5.36-14.78-.66-7.135.78-16.42 5.608-22.005l2.404-2.78 2.864 2.303c7.21 5.794 13.276 13.89 14.345 23.12 8.683-2.555 18.878-1.95 26.53 2.466l3.14 1.812-1.65 3.226C246.932 68.946 233.4 72.86 220.17 72.167c-19.796 49.31-62.897 72.653-115.156 72.653-27 0-51.77-10.093-65.876-34.047l-.23-.39-2.056-4.182c-4.768-10.543-6.352-22.094-5.278-33.636l.323-3.457H51.45V45.732h22.865V22.866h45.733V0h27.44v45.732"/><path fill="#22A0C8" d="M221.57 54.38c1.533-11.916-7.384-21.275-12.914-25.72-6.373 7.37-7.363 26.68 2.635 34.81-5.578 4.955-17.336 9.447-29.375 9.447H35.37c-1.17 12.567 1.036 24.14 6.075 34.045l1.667 3.05a56.788 56.788 0 0 0 3.455 5.184c6.025.387 11.58.52 16.662.408 9.988-.22 18.137-1.4 24.313-3.54a1.76 1.76 0 1 1 1.152 3.327 47.65 47.65 0 0 1-2.56.805h-.004c-4.862 1.39-10.077 2.323-16.805 2.738.4.007-.416.06-.418.06-.23.015-.517.048-.747.06-2.648.15-5.506.18-8.428.18-3.196 0-6.343-.06-9.862-.24l-.09.06c12.21 13.724 31.302 21.955 55.234 21.955 50.648 0 93.608-22.452 112.632-72.857 13.496 1.386 26.467-2.056 32.367-13.574-9.398-5.423-21.484-3.694-28.443-.196"/><path fill="#37B1D9" d="M221.57 54.38c1.533-11.916-7.384-21.275-12.914-25.72-6.373 7.37-7.363 26.68 2.635 34.81-5.578 4.955-17.336 9.447-29.375 9.447H44.048c-.598 19.246 6.544 33.855 19.18 42.687h.003c9.988-.22 18.137-1.4 24.313-3.54a1.76 1.76 0 1 1 1.152 3.327 47.65 47.65 0 0 1-2.56.805h-.004c-4.862 1.39-10.525 2.443-17.253 2.858-.002 0-.163-.155-.165-.155 17.237 8.842 42.23 8.81 70.885-2.197 32.13-12.343 62.03-35.86 82.89-62.756-.314.142-.62.287-.917.436"/><path fill="#1B81A5" d="M35.645 88.186c.91 6.732 2.88 13.035 5.8 18.776l1.667 3.05a56.788 56.788 0 0 0 3.455 5.184c6.026.387 11.58.52 16.664.408 9.988-.22 18.137-1.4 24.313-3.54a1.76 1.76 0 1 1 1.152 3.327 47.65 47.65 0 0 1-2.56.805h-.004c-4.862 1.39-10.495 2.383-17.223 2.8-.23.013-.634.016-.867.028-2.646.15-5.475.24-8.398.24-3.195 0-6.463-.06-9.98-.24 12.21 13.724 31.42 21.985 55.352 21.985 43.36 0 81.084-16.458 102.98-52.822H35.643"/><path fill="#1D91B4" d="M45.367 88.186c2.592 11.82 8.82 21.1 17.864 27.418 9.988-.22 18.137-1.4 24.313-3.54a1.76 1.76 0 1 1 1.152 3.327 47.65 47.65 0 0 1-2.56.805h-.004c-4.862 1.39-10.614 2.383-17.343 2.8 17.236 8.84 42.157 8.712 70.81-2.294 17.334-6.66 34.017-16.573 48.984-28.514H45.368"/><path fill="#23A3C2" d="M55.26 49.543h19.82V69.36H55.26V49.544zm1.65 1.652h1.565V67.71H56.91V51.195zm2.942 0h1.626V67.71h-1.626V51.195zm3 0h1.628V67.71h-1.627V51.195zm3.005 0h1.626V67.71h-1.626V51.195zm3.003 0h1.626V67.71H68.86V51.195zm3.002 0h1.565V67.71h-1.565V51.195zm6.264-24.518h19.82v19.817h-19.82V26.677zm1.652 1.652h1.563v16.513H79.78V28.33zm2.94 0h1.626v16.513H82.72V28.33zm3.002 0h1.626v16.513H85.72V28.33zm3.003 0h1.626v16.513h-1.627V28.33zm3.003 0h1.627v16.513h-1.627V28.33zm3.002 0h1.566v16.513h-1.566V28.33z"/><path fill="#34BBDE" d="M78.126 49.543h19.82V69.36h-19.82V49.544zm1.652 1.652h1.563V67.71H79.78V51.195zm2.94 0h1.626V67.71H82.72V51.195zm3.002 0h1.626V67.71H85.72V51.195zm3.003 0h1.626V67.71h-1.627V51.195zm3.003 0h1.627V67.71h-1.627V51.195zm3.002 0h1.566V67.71h-1.566V51.195z"/><path fill="#23A3C2" d="M100.993 49.543h19.818V69.36h-19.817V49.544zm1.65 1.652h1.564V67.71h-1.563V51.195zm2.94 0h1.627V67.71h-1.626V51.195zm3.004 0h1.626V67.71h-1.626V51.195zm3.003 0h1.626V67.71h-1.626V51.195zm3.002 0h1.628V67.71h-1.628V51.195zm3.003 0h1.564V67.71h-1.565V51.195z"/><path fill="#34BBDE" d="M100.993 26.677h19.818v19.817h-19.817V26.677zm1.65 1.652h1.564v16.513h-1.563V28.33zm2.94 0h1.627v16.513h-1.626V28.33zm3.004 0h1.626v16.513h-1.626V28.33zm3.003 0h1.626v16.513h-1.626V28.33zm3.002 0h1.628v16.513h-1.628V28.33zm3.003 0h1.564v16.513h-1.565V28.33zm6.265 21.214h19.817V69.36H123.86V49.544zm1.65 1.652h1.564V67.71h-1.563V51.195zm2.94 0h1.627V67.71h-1.626V51.195zm3.003 0h1.626V67.71h-1.627V51.195zm3.003 0h1.627V67.71h-1.627V51.195zm3.003 0h1.626V67.71h-1.627V51.195zm3.002 0h1.564V67.71h-1.564V51.195z"/><path fill="#23A3C2" d="M123.86 26.677h19.817v19.817H123.86V26.677zm1.65 1.652h1.564v16.513h-1.563V28.33zm2.94 0h1.627v16.513h-1.626V28.33zm3.003 0h1.626v16.513h-1.627V28.33zm3.003 0h1.627v16.513h-1.627V28.33zm3.003 0h1.626v16.513h-1.627V28.33zm3.002 0h1.564v16.513h-1.564V28.33z"/><path fill="#34BBDE" d="M123.86 3.81h19.817v19.82H123.86V3.81zm1.65 1.65h1.564v16.517h-1.563V5.46zm2.94 0h1.627v16.517h-1.626V5.46zm3.003 0h1.626v16.517h-1.627V5.46zm3.003 0h1.627v16.517h-1.627V5.46zm3.003 0h1.626v16.517h-1.627V5.46zm3.002 0h1.564v16.517h-1.564V5.46z"/><path fill="#23A3C2" d="M146.725 49.543h19.818V69.36h-19.818V49.544zm1.65 1.652h1.565V67.71h-1.564V51.195zm2.94 0h1.627V67.71h-1.626V51.195zm3.004 0h1.626V67.71h-1.627V51.195zm3 0h1.628V67.71h-1.627V51.195zm3.005 0h1.626V67.71h-1.625V51.195zm3.002 0h1.564V67.71h-1.563V51.195z"/><path fill="#D3ECEC" d="M96.704 101.492a5.466 5.466 0 1 1 0 10.933 5.468 5.468 0 1 1 0-10.935"/><path fill="#364548" d="M96.704 103.043c.5 0 .977.094 1.417.265a1.6 1.6 0 0 0-.8 1.384 1.599 1.599 0 0 0 3 .764 3.917 3.917 0 1 1-3.616-2.416M0 90.162h254.327c-5.537-1.404-17.52-3.302-15.544-10.56-10.07 11.652-34.353 8.175-40.482 2.43-6.823 9.898-46.553 6.135-49.324-1.576-8.556 10.04-35.067 10.04-43.623 0-2.773 7.71-42.502 11.474-49.327 1.575-6.128 5.747-30.41 9.224-40.48-2.427C17.522 86.86 5.54 88.758 0 90.163"/><path fill="#BDD9D7" d="M111.237 140.89c-13.54-6.425-20.97-15.16-25.106-24.694-5.028 1.435-11.074 2.353-18.1 2.747-2.645.148-5.428.224-8.35.224-3.367 0-6.916-.1-10.642-.297 12.417 12.41 27.692 21.964 55.976 22.138 2.088 0 4.16-.04 6.223-.118"/><path fill="#D3ECEC" d="M91.16 124.994c-1.873-2.543-3.69-5.74-5.026-8.8-5.03 1.437-11.077 2.355-18.103 2.75 4.827 2.62 11.728 5.046 23.13 6.05"/></g></svg>