<svg xmlns="http://www.w3.org/2000/svg" viewBox="0 0 237 236"><g fill="none" fill-rule="evenodd"><path fill="#FFF" d="M236.6 123.8c0-19.8-12.3-37.2-30.8-43.9.8-4.2 1.2-8.4 1.2-12.7C207 30.3 177 .3 140.2.3 118.6.3 98.6 10.6 86 28c-6.2-4.8-13.8-7.4-21.7-7.4-19.6 0-35.5 15.9-35.5 35.5 0 4.3.8 8.5 2.2 12.4-18.4 6.6-31 24.3-31 44 0 19.9 12.4 37.3 30.9 44-.8 4.1-1.2 8.4-1.2 12.7 0 36.8 29.9 66.7 66.7 66.7 21.6 0 41.6-10.4 54.1-27.8 6.2 4.9 13.8 7.6 21.7 7.6 19.6 0 35.5-15.9 35.5-35.5 0-4.3-.8-8.5-2.2-12.4 18.4-6.6 31.1-24.3 31.1-44"/><path fill="#FED10A" d="M93 101.8l51.8 23.6L197 79.6c.8-3.8 1.1-7.5 1.1-11.5 0-32.2-26.2-58.4-58.4-58.4-19.3 0-37.2 9.5-48.1 25.4l-8.7 45.1L93 101.8z"/><path fill="#24BBB1" d="M39.4 156.6c-.8 3.8-1.1 7.7-1.1 11.7 0 32.3 26.3 58.5 58.6 58.5 19.4 0 37.5-9.6 48.4-25.6l8.6-44.9-11.5-22-52-23.7-51 46z"/><path fill="#EF5098" d="M39.1 67l35.5 8.4 7.8-40.3c-4.8-3.7-10.8-5.7-17-5.7-15.4 0-28 12.5-28 28 0 3.3.6 6.6 1.7 9.6"/><path fill="#17A8E0" d="M36 75.5C20.2 80.7 9.1 95.9 9.1 112.6c0 16.3 10.1 30.8 25.2 36.6l49.8-45L75 84.7l-39-9.2z"/><path fill="#93C83E" d="M154.3 201.2c4.9 3.7 10.8 5.8 16.9 5.8 15.4 0 28-12.5 28-28 0-3.4-.6-6.7-1.7-9.7l-35.4-8.3-7.8 40.2z"/><path fill="#0779A1" d="M161.5 151.7l39 9.1c15.9-5.2 26.9-20.4 26.9-37.2 0-16.2-10.1-30.8-25.2-36.5l-51 44.7 10.3 19.9z"/></g></svg>