<svg xmlns="http://www.w3.org/2000/svg" viewBox="0 0 400 400"><g fill="none" fill-rule="evenodd"><rect width="400" height="400" fill="#FBDE34" rx="5.295"/><path fill="#000" d="M188.844 323.21H150.03v24.4h45.844v18.984H125.35V264.218h70.665v19.055H150.03v21.586h38.813v18.35zm70.03 16.173c0-3.61-1.288-6.422-3.866-8.438-2.53-2.015-7.008-4.1-13.43-6.257s-11.672-4.243-15.75-6.258c-13.265-6.516-19.898-15.47-19.898-26.86 0-5.67 1.64-10.663 4.922-14.976 3.328-4.36 8.015-7.735 14.062-10.125 6.047-2.438 12.843-3.657 20.39-3.657 7.36 0 13.946 1.312 19.76 3.937 5.858 2.625 10.405 6.375 13.64 11.25 3.234 4.828 4.85 10.36 4.85 16.594h-24.61c0-4.172-1.288-7.406-3.866-9.703-2.53-2.296-5.977-3.445-10.336-3.445-4.407 0-7.9.985-10.476 2.954-2.53 1.92-3.797 4.38-3.797 7.38 0 2.626 1.405 5.017 4.218 7.173 2.812 2.11 7.757 4.313 14.835 6.61 7.08 2.25 12.89 4.687 17.438 7.312 11.064 6.375 16.595 15.164 16.595 26.367 0 8.953-3.375 15.985-10.125 21.094-6.75 5.11-16.008 7.664-27.774 7.664-8.297 0-15.82-1.477-22.57-4.43-6.703-3-11.766-7.078-15.188-12.234-3.375-5.203-5.062-11.18-5.062-17.93h24.75c0 5.485 1.406 9.54 4.22 12.164 2.858 2.58 7.475 3.868 13.85 3.868 4.078 0 7.29-.867 9.633-2.602 2.39-1.78 3.585-4.266 3.585-7.453zm93.236-76.64v18.632h-1.055c-8.86 0-16.15 2.133-21.868 6.4-5.67 4.218-9.163 10.1-10.476 17.647 5.345-5.25 12.095-7.875 20.25-7.875 8.86 0 15.915 3.234 21.165 9.703 5.25 6.47 7.875 14.953 7.875 25.453 0 6.516-1.547 12.493-4.64 17.93-3.047 5.437-7.336 9.703-12.868 12.797-5.484 3.047-11.578 4.57-18.28 4.57-7.267 0-13.76-1.64-19.478-4.922-5.72-3.328-10.172-8.062-13.36-14.203-3.186-6.14-4.827-13.218-4.92-21.234v-9.49c0-10.548 2.25-20.017 6.75-28.408 4.546-8.437 11.014-15.047 19.405-19.828 8.39-4.78 17.694-7.172 27.913-7.172h3.586zm-21.376 52.945c-3.14 0-5.765.727-7.875 2.18-2.11 1.453-3.68 3.234-4.71 5.343v7.103c0 12.937 4.476 19.406 13.43 19.406 3.608 0 6.608-1.618 9-4.853 2.436-3.234 3.654-7.29 3.654-12.164 0-5.015-1.242-9.093-3.726-12.234-2.437-3.188-5.695-4.782-9.774-4.782z"/></g></svg>