<svg xmlns="http://www.w3.org/2000/svg" viewBox="0 0 114 114"><path fill="#F05133" fill-rule="evenodd" d="M111.78 51.888L62.035 2.148a7.337 7.337 0 0 0-10.374 0L41.333 12.48l13.102 13.103c3.046-1.028 6.537-.338 8.964 2.09a8.717 8.717 0 0 1 2.07 9.018l12.628 12.628c3.055-1.052 6.58-.372 9.02 2.072a8.727 8.727 0 0 1 0 12.345 8.733 8.733 0 0 1-12.35 0 8.733 8.733 0 0 1-1.9-9.494L61.09 42.459l-.002 30.992a8.852 8.852 0 0 1 2.31 1.65c3.41 3.41 3.41 8.934 0 12.35-3.41 3.41-8.94 3.41-12.346 0a8.73 8.73 0 0 1 2.86-14.253V41.92a8.608 8.608 0 0 1-2.86-1.905c-2.583-2.58-3.205-6.372-1.88-9.544L36.254 17.554 2.15 51.658a7.338 7.338 0 0 0 0 10.378l49.74 49.74a7.34 7.34 0 0 0 10.377 0L111.78 62.27a7.342 7.342 0 0 0 0-10.378"/></svg>