<svg xmlns="http://www.w3.org/2000/svg" viewBox="0 0 256 566"><path fill="#CF4646" fill-rule="evenodd" d="M197.28 548.75l5.427-90.43 14.985-25.58s-34.106 13.95-91.205 13.95c-57.1 0-90.69-13.693-90.69-13.693L52.593 460.9l5.94 87.85c0 9.417 31.06 17.05 69.375 17.05 38.313 0 69.373-7.633 69.373-17.05m57.11-533.44L191.55 81.43l-11.39 45.024c44.39 2.797 75.315 9.063 75.315 16.343 0 9.887-57.018 17.902-127.353 17.902C57.788 160.7.77 152.683.77 142.796c0-9.886 57.018-17.902 127.354-17.902 9.96-.002 19.92.163 29.873.497L171.223 71.6 238.007.89c1.59-1.832 6.57-.118 11.126 3.827 4.442 3.848 6.84 8.4 5.487 10.322l.013.01-.12.126c0 .002-.002.004-.004.006-.04.044-.08.086-.12.126zm-60.144 312.555c-1.495-14.384 31.462-35.216 23.004-35.883-18.208 1.04-27.27 21.338-36.43 42.596-3.358 7.79-14.845 41.013-22.38 36.923-7.53-4.087 9.766-31.406 14.614-47.63-5.594 4.102-26.11 20.04-31.396 5.114-8.5 7.22-26.663 11.13-24.614-7.833-4.522 8.01-14.67 19.194-26.853 14.547-15.997-6.1 9.27-57.062 15.554-54.49 6.284 2.57-1.268 14.178-3.246 18.686-4.35 9.92-9.375 22.393-6.018 24.946 5.75 4.373 21.4-16.548 21.75-17.008 2.926-3.867 11.265-29.166 17.986-26.26 6.72 2.904-16.764 36.307-7.983 42.936 1.77 1.338 9.017-.825 13.425-5.594 2.852-3.085 1.87-9.918 11.378-32.59 9.507-22.67 17.98-50.905 24.5-48.754 6.52 2.15 1.146 16.64-1.193 22.043-10.976 25.354-29.956 67.24-21.005 64.07 8.95-3.17 13.612-3.356 22.377-13.613 8.765-10.257 8.36-27.152 14.203-26.793 5.844.36 4.863 5.777 3.446 9.902 5.75-6.58 27.256-20.44 32.448-6.714 6.15 16.25-30.77 39.72-21.564 38.523 8.975-1.168 23.515-10.377 29.723-18.75l17.09-153.626s-17.196 14.23-126.59 14.23c-109.395 0-124.81-13.934-124.81-13.934L16.21 293.133c7.722-21.947 26.06-66.34 54.963-64.85 13.148.68 30.7 25.996 15.665 26.854-6.364.362-7.01-12.637-14.546-14.546-5.44-1.378-13.01 3.043-17.903 7.833-9.758 9.55-30.745 47.23-27.972 66.014 3.533 23.948 33.048-8.323 38.042-17.904 3.517-6.75 5.893-26.745 13.585-24.647 7.693 2.097-.67 22.733-6.247 40.978-6.264 20.487-9.557 42.098-17.408 39.612-7.852-2.484 4.938-28.932 4.475-33.566-7.38 6.81-20.976 24.047-38.37 15.515l9.035 87.077s24.013 18.973 96.35 18.973c72.337 0 97.24-18.677 97.24-18.677l11.218-100.857c-9.18 8.938-38.23 24.81-40.09 6.92z"/></svg>