<svg xmlns="http://www.w3.org/2000/svg" viewBox="0 0 120 120"><g fill="none" fill-rule="evenodd"><circle cx="60" cy="60" r="60" fill="#F26623"/><path fill="#FBBE98" d="M27.3 96c-3.6-.1-6.2-1.1-8-3-1.8-1.9-2.7-4.9-2.7-9.2V71.3c0-6.6-2.2-10.3-6.5-10.9v-2.7c4.4-.6 6.5-4 6.5-10.2V34.3c0-4.3.9-7.3 2.7-9.2 1.8-1.9 4.5-2.9 8-3v3.5c-2.5.1-4.2.9-5.2 2.4s-1.5 4-1.5 7.5v12.3c0 6.2-2 9.9-6.1 11.2v.2c4.1 1.3 6.1 5.2 6.1 11.8v11.6c0 3.6.5 6.1 1.5 7.5 1 1.5 2.7 2.3 5.2 2.4V96zm83.6-35.6c-4.3.6-6.5 4.3-6.5 10.9v12.5c0 4.3-.9 7.3-2.7 9.2-1.8 1.9-4.5 2.9-8 3v-3.5c2.3-.1 4-.9 5.1-2.2 1.1-1.3 1.6-3.9 1.6-7.7V71c0-6.6 2-10.5 6.1-11.8V59c-4.1-1.3-6.1-5-6.1-11.2V35.5c0-3.8-.5-6.3-1.6-7.7-1.1-1.4-2.8-2.1-5.1-2.2v-3.5c3.6.1 6.2 1.1 8 3 1.8 1.9 2.7 4.9 2.7 9.2v13.2c0 6.2 2.2 9.6 6.5 10.2v2.7z"/><path d="M56.2 61.4H34.3V24.9h21v6.7H42.5v8.1h11.9v6.7H42.5v8.3h13.7v6.7m4.2-1.4v-8.1c1.5 1.2 3.1 2.2 4.8 2.8 1.7.6 3.5.9 5.2.9 1 0 1.9-.1 2.7-.3.8-.2 1.4-.4 1.9-.8.5-.3.9-.7 1.2-1.2.3-.4.4-.9.4-1.5 0-.7-.2-1.3-.6-1.9-.4-.6-1-1.1-1.7-1.6s-1.5-.9-2.5-1.4c-1-.4-2-.9-3.1-1.3-2.8-1.2-5-2.6-6.4-4.4-1.4-1.7-2.1-3.8-2.1-6.2 0-1.9.4-3.5 1.1-4.9.8-1.4 1.8-2.5 3.1-3.4 1.3-.9 2.8-1.5 4.6-1.9 1.7-.4 3.6-.6 5.5-.6s3.6.1 5 .3c1.5.2 2.8.6 4.1 1.1v7.6c-.6-.4-1.3-.8-2-1.1-.7-.3-1.5-.6-2.2-.8-.8-.2-1.5-.4-2.3-.5-.8-.1-1.5-.2-2.1-.2-.9 0-1.8.1-2.5.3-.8.2-1.4.4-1.9.8-.5.3-.9.7-1.2 1.2-.3.4-.4 1-.4 1.5 0 .6.2 1.2.5 1.6.3.4.8.9 1.4 1.4.6.4 1.3.9 2.2 1.3.8.4 1.8.8 2.9 1.3 1.5.6 2.8 1.3 3.9 1.9 1.2.7 2.2 1.5 3 2.3.8.8 1.5 1.9 1.9 3 .4 1.1.7 2.4.7 3.9 0 2-.4 3.7-1.2 5.1-.8 1.4-1.8 2.5-3.1 3.4-1.3.9-2.9 1.5-4.6 1.8-1.8.4-3.6.6-5.6.6-2 0-3.9-.2-5.7-.5-2.1-.3-3.6-.8-4.9-1.5zM49.2 93.2H37.5V72H41v18.2h8.2m4.4-15.3c-.6 0-1-.2-1.4-.5-.4-.4-.6-.8-.6-1.4 0-.6.2-1 .6-1.4.4-.4.9-.6 1.4-.6.6 0 1.1.2 1.5.6.4.4.6.8.6 1.4 0 .5-.2 1-.6 1.4-.4.3-.9.5-1.5.5zm1.7 18.3h-3.4V78.1h3.4v15.1zm17.9 0h-3.4v-8.5c0-2.8-1-4.2-3-4.2-1 0-1.9.4-2.6 1.2-.7.8-1 1.8-1 3v8.6h-3.4V78.2h3.4v2.5h.1c1.1-1.9 2.8-2.9 4.9-2.9 1.6 0 2.9.5 3.8 1.6.9 1.1 1.3 2.6 1.3 4.6v9.2h-.1zm12.2-.2c-.7.3-1.5.5-2.6.5-2.9 0-4.4-1.4-4.4-4.2v-8.5h-2.5v-2.7h2.5v-3.5l3.4-1v4.5h3.6v2.7h-3.6v7.6c0 .9.2 1.5.5 1.9.3.4.9.6 1.6.6.6 0 1.1-.2 1.5-.5V93z" fill="#FFF"/><path d="M79.6 101l2.9-2.9 3 2.9m-11.9 0l2.9-2.9 3 2.9m-11.9 0l2.9-2.9 3 2.9m-11.9 0l2.9-2.9 3 2.9m-11.9 0l2.9-2.9 3 2.9m-11.9 0l2.9-2.9 3 2.9m-11.9 0l2.9-2.9 3 2.9m-11.9 0l2.9-2.9 3 2.9" stroke="#BE4F38" stroke-width="3"/></g></svg>