<svg xmlns="http://www.w3.org/2000/svg" viewBox="0 0 60 60" xmlns:xlink="http://www.w3.org/1999/xlink"><defs><path id="a" d="M3.303.024L2.25.377S2.383 5.78.46 6.157c-1.267 1.488.196 63.58 4.802.213 0 0-1.576-.802-1.875-2.164C3.09 2.843 3.303.024 3.303.024z"/><linearGradient id="b" x1="-70.443%" x2="160.736%" y1="56.045%" y2="44.147%"><stop stop-color="#929669" offset="0%"/><stop stop-color="#929669" offset="23.077%"/><stop stop-color="#FDFCF1" offset="100%"/></linearGradient><path id="d" d="M1.62.004s9.153 6.108 7.01 18.792c-2.066 9.216-6.94 12.246-7.465 13.402-.577.82-1.158 2.27-1.158 2.27L.397 8.79S-.41.95 1.62.004z"/><linearGradient id="e" x1="-16.607%" x2="78.15%" y1="99.299%" y2="2.536%"><stop stop-color="#45AA3A" offset="0%"/><stop stop-color="#3D9439" offset="100%"/></linearGradient><path id="g" d="M8.147.02S-.438 5.952.057 16.422c.493 10.47 6.557 15.62 7.738 16.553.763.825.795 1.143.854 1.956.534-1.164.445-17.397.502-19.295C9.372 8.25 8.748 1.413 8.147.02z"/><linearGradient id="h" x1="-9.624%" x2="152.344%" y1="43.904%" y2="53.689%"><stop stop-color="#41A83B" offset="0%"/><stop stop-color="#5EBC44" offset="100%"/></linearGradient></defs><g fill="none" fill-rule="evenodd"><path fill="#414044" d="M51.21 51.21C57.035 45.33 60 38.28 60 30c0-8.28-2.964-15.332-8.79-21.21C45.33 2.964 38.28 0 30 0 21.72 0 14.668 2.964 8.79 8.79 2.964 14.668 0 21.72 0 30c0 8.28 2.964 15.332 8.79 21.21C14.668 57.086 21.72 60 30 60c8.28 0 15.332-2.913 21.21-8.79z"/><g transform="translate(27.68 15.33)"><mask id="c" fill="#fff"><use xlink:href="#a"/></mask><path fill="url(#b)" d="M3.303.024L2.25.377S2.383 5.78.46 6.157c-1.267 1.488.196 63.58 4.802.213 0 0-1.576-.802-1.875-2.164C3.09 2.843 3.303.024 3.303.024" mask="url(#c)"/></g><g transform="translate(29.93 10.1)"><mask id="f" fill="#fff"><use xlink:href="#d"/></mask><path fill="url(#e)" d="M1.62.004s9.153 6.108 7.01 18.792c-2.066 9.216-6.94 12.246-7.465 13.402-.577.82-1.158 2.27-1.158 2.27L.397 8.79S-.41.95 1.62.004" mask="url(#f)"/></g><g transform="translate(21.25 10.45)"><mask id="i" fill="#fff"><use xlink:href="#g"/></mask><path fill="url(#h)" d="M8.147.02S-.438 5.952.057 16.422c.493 10.47 6.557 15.62 7.738 16.553.763.825.795 1.143.854 1.956.534-1.164.445-17.397.502-19.295C9.372 8.25 8.748 1.413 8.147.02" mask="url(#i)"/></g></g></svg>