<svg xmlns="http://www.w3.org/2000/svg" viewBox="0 0 145 142"><path fill="#00618A" fill-rule="evenodd" d="M133.268 109.88c-7.894-.214-13.924.52-19.08 2.694-1.464.618-3.8.634-4.04 2.47.806.844.93 2.104 1.57 3.142 1.232 1.992 3.31 4.66 5.164 6.06 2.026 1.53 4.114 3.166 6.286 4.49 3.863 2.356 8.176 3.7 11.896 6.06 2.192 1.392 4.37 3.144 6.51 4.714 1.056.776 1.767 1.983 3.14 2.47v-.225c-.72-.92-.907-2.183-1.57-3.143l-2.918-2.918c-2.853-3.787-6.475-7.113-10.325-9.876-3.07-2.204-9.94-5.18-11.222-8.754l-.225-.225c2.177-.246 4.726-1.034 6.735-1.572 3.375-.905 6.39-.67 9.876-1.57 1.57-.45 3.142-.9 4.714-1.348v-.898c-1.762-1.808-3.018-4.2-4.94-5.836-5.025-4.28-10.51-8.556-16.16-12.12-3.133-1.98-7.005-3.264-10.325-4.94-1.117-.563-3.08-.856-3.817-1.796-1.744-2.223-2.694-5.042-4.04-7.632-2.817-5.425-5.584-11.35-8.08-17.06-1.703-3.892-2.815-7.73-4.938-11.223-10.192-16.757-21.163-26.87-38.158-36.812-3.616-2.114-7.97-2.95-12.57-4.04l-7.408-.45c-1.507-.63-3.075-2.473-4.49-3.367C19.223 2.62 4.783-5.117.613 5.054c-2.633 6.42 3.935 12.685 6.284 15.938 1.65 2.282 3.76 4.84 4.938 7.407.775 1.686.91 3.377 1.572 5.162 1.632 4.397 3.05 9.18 5.162 13.243 1.067 2.056 2.243 4.222 3.592 6.06.827 1.13 2.244 1.626 2.468 3.368-1.386 1.94-1.465 4.95-2.244 7.407-3.508 11.062-2.185 24.81 2.918 32.997 1.566 2.513 5.254 7.903 10.325 5.836 4.436-1.807 3.445-7.406 4.714-12.345.288-1.12.112-1.944.674-2.694v.225l4.04 8.078c2.99 4.816 8.298 9.85 12.795 13.245 2.33 1.76 4.167 4.806 7.182 5.836v-.226h-.225c-.584-.91-1.498-1.288-2.244-2.02-1.757-1.722-3.71-3.863-5.163-5.836-4.09-5.553-7.705-11.63-10.998-17.957-1.573-3.02-2.94-6.353-4.266-9.427-.51-1.185-.505-2.977-1.57-3.592-1.452 2.254-3.59 4.076-4.714 6.736-1.796 4.252-2.028 9.437-2.693 14.814-.395.14-.22.044-.45.224-3.127-.754-4.226-3.972-5.387-6.733-2.94-6.98-3.485-18.224-.9-26.26.67-2.08 3.694-8.63 2.47-10.55-.584-1.918-2.512-3.027-3.59-4.49-1.336-1.812-2.67-4.196-3.593-6.287-2.405-5.444-3.528-11.555-6.06-17.058-1.21-2.63-3.257-5.293-4.938-7.632-1.86-2.59-3.945-4.5-5.387-7.633-.513-1.113-1.21-2.895-.45-4.04.243-.772.584-1.095 1.348-1.347 1.302-1.003 4.928.334 6.284.898 3.6 1.496 6.604 2.92 9.653 4.94 1.464.97 2.944 2.847 4.713 3.367h2.02c3.16.726 6.7.225 9.652 1.122 5.218 1.585 9.894 4.05 14.14 6.733 12.94 8.17 23.517 19.798 30.753 33.67 1.164 2.233 1.668 4.365 2.693 6.734 2.07 4.778 4.676 9.694 6.734 14.366 2.054 4.66 4.056 9.365 6.96 13.244 1.526 2.04 7.42 3.133 10.1 4.264 1.878.795 4.955 1.622 6.734 2.694 3.398 2.05 6.69 4.49 9.877 6.735 1.593 1.12 6.49 3.582 6.733 5.61zM32.934 24.36c-1.646-.03-2.81.18-4.04.447v.225h.224c.785 1.613 2.17 2.65 3.142 4.04l2.245 4.714.224-.224c1.39-.98 2.026-2.547 2.02-4.938-.558-.586-.64-1.322-1.123-2.02-.642-.933-1.884-1.462-2.693-2.245z"/></svg>