<svg xmlns="http://www.w3.org/2000/svg" viewBox="0 0 433 489"><g fill="none" fill-rule="evenodd" transform="translate(0 2)"><path fill="#008CC1" d="M412.8 219.8c0 114-92.4 206.4-206.4 206.4S0 333.8 0 219.8 92.4 13.4 206.4 13.4c114-.1 206.4 92.4 206.4 206.4"/><path fill="#FFF" d="M91.5 152.1c0 9.1-7.4 16.5-16.5 16.5s-16.5-7.4-16.5-16.5 7.4-16.5 16.5-16.5c9.2 0 16.5 7.4 16.5 16.5m2.8 45.3c0 9.1-7.4 16.5-16.5 16.5s-16.5-7.4-16.5-16.5 7.4-16.5 16.5-16.5 16.5 7.3 16.5 16.5m10.1 48c0 9.1-7.4 16.5-16.5 16.5s-16.5-7.4-16.5-16.5 7.4-16.5 16.5-16.5c9.1-.1 16.5 7.3 16.5 16.5m22.6 43c0 9.1-7.4 16.5-16.5 16.5S94 297.5 94 288.4s7.4-16.5 16.5-16.5c9.1-.1 16.5 7.3 16.5 16.5m176.7 60.1c0 9.1-7.4 16.5-16.5 16.5s-16.5-7.4-16.5-16.5 7.4-16.5 16.5-16.5 16.5 7.4 16.5 16.5m30-35.5c0 9.1-7.4 16.5-16.5 16.5s-16.5-7.4-16.5-16.5 7.4-16.5 16.5-16.5 16.5 7.4 16.5 16.5m-87-251c0 9.1-7.4 16.5-16.5 16.5s-16.5-7.4-16.5-16.5 7.4-16.5 16.5-16.5 16.5 7.4 16.5 16.5m-43.4-15.2c0 9.1-7.4 16.5-16.5 16.5s-16.5-7.4-16.5-16.5 7.4-16.5 16.5-16.5 16.5 7.4 16.5 16.5"/><circle cx="320.3" cy="170.6" r="110" fill="#66B245" stroke="#FFF" stroke-width="3.5"/><circle cx="169.6" cy="394.9" r="90" fill="#66B245" stroke="#FFF" stroke-width="3.5"/><circle cx="95.5" cy="60" r="60" fill="#66B245" stroke="#FFF" stroke-width="3.5"/></g></svg>