<svg xmlns="http://www.w3.org/2000/svg" viewBox="0 0 60 60"><path fill="#8CC84B" d="M51.21 51.21C57.035 45.33 60 38.28 60 30s-2.964-15.332-8.79-21.21C45.33 2.964 38.28 0 30 0S14.668 2.964 8.79 8.79C2.964 14.668 0 21.72 0 30s2.964 15.332 8.79 21.21C14.668 57.086 21.72 60 30 60s15.332-2.913 21.21-8.79z"/><path fill="#fff" d="M29.995 51.988a3.38 3.38 0 0 1-1.69-.452l-5.382-3.184c-.802-.45-.41-.608-.146-.7 1.072-.373 1.29-.46 2.433-1.107.12-.068.276-.04.4.03l4.134 2.454c.15.083.36.083.5 0l16.115-9.303a.506.506 0 0 0 .246-.435V20.694a.52.52 0 0 0-.25-.444l-16.108-9.293a.504.504 0 0 0-.496 0l-16.105 9.296a.519.519 0 0 0-.255.44v18.6c0 .177.098.345.254.43l4.414 2.55c2.396 1.196 3.862-.215 3.862-1.63V22.28c0-.258.21-.463.468-.463h2.043c.256 0 .467.205.467.464v18.363c0 3.196-1.742 5.03-4.772 5.03-.93 0-1.665 0-3.712-1.007l-4.226-2.434a3.4 3.4 0 0 1-1.69-2.938v-18.6c0-1.21.646-2.336 1.69-2.938l16.116-9.312c1.02-.577 2.375-.577 3.387 0l16.113 9.312a3.405 3.405 0 0 1 1.694 2.938v18.598a3.41 3.41 0 0 1-1.694 2.938l-16.113 9.305c-.517.3-1.1.453-1.698.453zm4.977-12.813c-7.052 0-8.53-3.237-8.53-5.95 0-.26.21-.466.467-.466h2.082c.233 0 .426.168.463.393.314 2.12 1.252 3.193 5.517 3.193 3.395 0 4.84-.768 4.84-2.57 0-1.037-.41-1.808-5.686-2.326-4.41-.435-7.136-1.41-7.136-4.938 0-3.25 2.74-5.19 7.336-5.19 5.162 0 7.716 1.79 8.04 5.636a.471.471 0 0 1-.12.358.48.48 0 0 1-.342.15h-2.092a.465.465 0 0 1-.452-.365c-.502-2.23-1.722-2.943-5.033-2.943-3.707 0-4.138 1.292-4.138 2.258 0 1.172.507 1.513 5.512 2.176 4.953.657 7.304 1.583 7.304 5.065 0 3.51-2.927 5.52-8.034 5.52z"/></svg>