<svg xmlns="http://www.w3.org/2000/svg" viewBox="0 0 711.201 383.598"><defs><clipPath id="a"><path d="M11.52 162C11.52 81.677 135.307 16.56 288 16.56S564.48 81.678 564.48 162 440.693 307.44 288 307.44 11.52 242.32 11.52 162"/></clipPath><radialGradient id="b" cx="0" cy="0" r="1" fx="0" fy="0" gradientTransform="matrix(363.0579 0 0 -363.0579 177.52 256.307)" gradientUnits="userSpaceOnUse" spreadMethod="pad"><stop offset="0" stop-color="#aeb2d5"/><stop offset=".3" stop-color="#aeb2d5"/><stop offset=".75" stop-color="#484c89"/><stop offset="1" stop-color="#484c89"/></radialGradient><clipPath id="c"><path d="M0 324h576V0H0v324z"/></clipPath><clipPath id="d"><path d="M0 324h576V0H0v324z"/></clipPath></defs><g clip-path="url(#a)" transform="matrix(1.25 0 0 -1.25 -4.4 394.3)"><path fill="url(#b)" d="M11.52 162C11.52 81.677 135.307 16.56 288 16.56S564.48 81.678 564.48 162 440.693 307.44 288 307.44 11.52 242.32 11.52 162"/></g><g clip-path="url(#c)" transform="matrix(1.25 0 0 -1.25 -4.4 394.3)"><path fill="#777bb3" d="M288 27.36c146.73 0 265.68 60.28 265.68 134.64 0 74.36-118.95 134.64-265.68 134.64-146.73 0-265.68-60.28-265.68-134.64C22.32 87.64 141.27 27.36 288 27.36"/></g><g clip-path="url(#d)" transform="matrix(1.25 0 0 -1.25 -4.4 394.3)"><path d="M161.734 145.307c12.065 0 21.072 2.225 26.77 6.61 5.64 4.342 9.533 11.863 11.574 22.354 1.903 9.807 1.178 16.654-2.154 20.35-3.407 3.773-10.773 5.687-21.893 5.687h-19.28l-10.69-55h15.674zM98.67 77.557a3 3 0 0 0-2.943 3.572l28.328 145.75a3 3 0 0 0 2.945 2.427h61.054c19.188 0 33.47-5.21 42.447-15.487 9.026-10.33 11.813-24.772 8.284-42.92-1.436-7.395-3.906-14.262-7.34-20.41-3.44-6.155-7.985-11.85-13.512-16.93-6.616-6.192-14.104-10.682-22.236-13.324-8.003-2.607-18.28-3.93-30.548-3.93h-24.722l-7.06-36.32a3.001 3.001 0 0 0-2.944-2.43h-31.75z"/><path fill="#fff" d="M159.224 197.307h16.808c13.42 0 18.083-2.945 19.667-4.7 2.627-2.914 3.123-9.058 1.434-17.767-1.898-9.75-5.416-16.663-10.458-20.545-5.162-3.974-13.554-5.988-24.94-5.988H149.7l9.524 49zm28.83 35H127a6.002 6.002 0 0 1-5.89-4.855L92.784 81.702a5.999 5.999 0 0 1 5.89-7.145h31.75a6.002 6.002 0 0 1 5.89 4.855l6.587 33.895h22.25c12.58 0 23.173 1.372 31.478 4.077 8.54 2.775 16.4 7.48 23.354 13.984 5.752 5.292 10.49 11.232 14.08 17.657 3.59 6.427 6.17 13.594 7.668 21.302 3.715 19.104.697 34.402-8.97 45.466-9.57 10.958-24.613 16.514-44.705 16.514m-45.633-90h19.313c12.8 0 22.336 2.41 28.6 7.234 6.267 4.825 10.493 12.876 12.69 24.158 2.1 10.832 1.143 18.476-2.872 22.93-4.02 4.452-12.06 6.68-24.12 6.68h-21.755l-11.856-61m45.633 84c18.367 0 31.766-4.82 40.188-14.462 8.42-9.64 10.957-23.098 7.597-40.375-1.383-7.116-3.722-13.623-7.015-19.518-3.297-5.9-7.602-11.293-12.922-16.184-6.34-5.933-13.383-10.16-21.133-12.68-7.75-2.524-17.62-3.78-29.62-3.78h-27.197l-7.53-38.75h-31.75L127 226.307h61.055"/><path d="M311.583 116.307c-.896 0-1.745.4-2.314 1.092a2.99 2.99 0 0 0-.632 2.48l12.53 64.488c1.193 6.133.9 10.535-.826 12.395-1.056 1.137-4.228 3.044-13.607 3.044h-22.702l-15.755-81.072a3.001 3.001 0 0 0-2.945-2.428h-31.5a2.998 2.998 0 0 0-2.945 3.572l28.328 145.75a3 3 0 0 0 2.945 2.427h31.5c.897 0 1.746-.4 2.316-1.09.57-.693.8-1.602.63-2.482l-6.836-35.178h24.422c18.605 0 31.22-3.28 38.57-10.028 7.49-6.885 9.826-17.892 6.946-32.72l-13.18-67.825a3 3 0 0 0-2.945-2.428h-32z"/><path fill="#fff" d="M293.66 271.057h-31.5a6.002 6.002 0 0 1-5.89-4.855l-28.327-145.75a5.999 5.999 0 0 1 5.89-7.145h31.5a6 6 0 0 1 5.89 4.855l15.283 78.645h20.23c9.362 0 11.327-2 11.406-2.086.568-.61 1.315-3.44.082-9.78l-12.53-64.49a5.998 5.998 0 0 1 5.89-7.143h32c2.87 0 5.34 2.036 5.89 4.855l13.178 67.825c3.093 15.92.447 27.864-7.86 35.5-7.93 7.28-21.21 10.82-40.6 10.82h-20.784l6.143 31.605a5.993 5.993 0 0 1-1.26 4.96 5.996 5.996 0 0 1-4.63 2.185m0-6l-7.53-38.75h28.062c17.657 0 29.836-3.082 36.54-9.238 6.702-6.16 8.71-16.142 6.03-29.94l-13.18-67.823h-32l12.532 64.488c1.426 7.336.902 12.34-1.574 15.008-2.477 2.668-7.746 4.004-15.805 4.004H281.56l-16.227-83.5h-31.5l28.328 145.75h31.5"/><path d="M409.55 145.307c12.065 0 21.072 2.225 26.77 6.61 5.64 4.34 9.533 11.862 11.575 22.354 1.903 9.807 1.178 16.654-2.155 20.35-3.407 3.773-10.773 5.687-21.893 5.687h-19.28l-10.69-55h15.673zm-63.062-67.75c-.895 0-1.745.4-2.314 1.092-.57.69-.802 1.6-.63 2.48l28.327 145.75a3.002 3.002 0 0 0 2.947 2.427h61.053c19.19 0 33.47-5.21 42.448-15.487 9.025-10.33 11.81-24.77 8.283-42.92-1.437-7.395-3.906-14.262-7.34-20.41-3.44-6.155-7.985-11.85-13.512-16.93-6.616-6.192-14.104-10.682-22.236-13.324-8.003-2.607-18.28-3.93-30.548-3.93H388.24l-7.056-36.32a3.004 3.004 0 0 0-2.946-2.43h-31.75z"/><path fill="#fff" d="M407.04 197.307h16.807c13.42 0 18.083-2.945 19.667-4.7 2.63-2.914 3.125-9.058 1.435-17.766-1.9-9.75-5.418-16.663-10.46-20.545-5.16-3.974-13.553-5.988-24.94-5.988h-12.033l9.522 49zm28.83 35h-61.054a6.002 6.002 0 0 1-5.89-4.855L340.6 81.702a6 6 0 0 1 5.888-7.145h31.75a6 6 0 0 1 5.89 4.855l6.587 33.895h22.25c12.58 0 23.173 1.372 31.478 4.077 8.54 2.775 16.4 7.48 23.356 13.986 5.75 5.29 10.487 11.23 14.077 17.655 3.59 6.427 6.17 13.594 7.668 21.302 3.715 19.105.697 34.403-8.97 45.467-9.57 10.957-24.612 16.513-44.705 16.513m-45.632-90h19.312c12.8 0 22.336 2.41 28.6 7.234 6.268 4.825 10.493 12.876 12.69 24.158 2.1 10.832 1.144 18.476-2.872 22.93-4.02 4.452-12.06 6.68-24.12 6.68h-21.755l-11.855-61m45.632 84c18.367 0 31.766-4.82 40.188-14.462 8.422-9.64 10.957-23.098 7.597-40.375-1.383-7.116-3.722-13.623-7.015-19.518-3.297-5.9-7.602-11.293-12.922-16.184-6.34-5.933-13.383-10.16-21.133-12.68-7.75-2.524-17.62-3.78-29.62-3.78h-27.197l-7.53-38.75h-31.75l28.328 145.75h61.054"/></g></svg>