<svg xmlns="http://www.w3.org/2000/svg" viewBox="0 0 272.126 272.128"><path fill="#F26822" d="M221.418 117.504h-59.366a7.402 7.402 0 0 1-7.432-7.43V50.675c0-4.13-3.313-7.414-7.433-7.414h-22.25c-4.12 0-7.433 3.284-7.433 7.414v59.397c0 4.134-3.33 7.43-7.447 7.43h-22.25a7.4 7.4 0 0 1-7.418-7.43V50.676c0-4.13-3.328-7.414-7.447-7.414H50.69a7.389 7.389 0 0 0-7.43 7.414v170.758a7.4 7.4 0 0 0 7.43 7.43h170.73a7.415 7.415 0 0 0 7.448-7.43v-96.527c0-4.118-3.33-7.403-7.448-7.403zm-29.683 63.084c0 6.18-4.97 11.148-11.133 11.148h-14.85a11.118 11.118 0 0 1-11.133-11.148v-14.85c0-6.178 4.97-11.147 11.132-11.147h14.85c6.163 0 11.133 4.97 11.133 11.148v14.85z"/></svg>