<svg xmlns="http://www.w3.org/2000/svg" viewBox="0 0 563 500"><g fill="none" fill-rule="evenodd" transform="translate(12 12)"><circle cx="269.529" cy="237.628" r="50.167" fill="#00D8FF"/><path stroke="#00D8FF" stroke-width="24" d="M269.53 135.628c67.355 0 129.927 9.665 177.106 25.907 56.844 19.57 91.794 49.233 91.794 76.093 0 27.99-37.04 59.503-98.083 79.728-46.15 15.29-106.88 23.272-170.818 23.272-65.555 0-127.63-7.492-174.29-23.44C36.192 297.004.627 265.083.627 237.627c0-26.642 33.37-56.076 89.415-75.616 47.355-16.51 111.472-26.384 179.486-26.384z"/><path stroke="#00D8FF" stroke-width="24" d="M180.736 186.922c33.65-58.348 73.28-107.724 110.92-140.48C337.006 6.976 380.163-8.48 403.43 4.937c24.25 13.983 33.044 61.813 20.07 124.796-9.81 47.618-33.234 104.212-65.176 159.6-32.75 56.79-70.25 106.82-107.377 139.273-46.98 41.068-92.4 55.93-116.185 42.213-23.08-13.31-31.906-56.922-20.834-115.234 9.355-49.27 32.832-109.745 66.81-168.664z"/><path stroke="#00D8FF" stroke-width="24" d="M180.82 289.482c-33.745-58.292-56.73-117.287-66.31-166.255-11.545-59-3.383-104.11 19.863-117.566 24.224-14.023 70.055 2.245 118.14 44.94C288.87 82.88 326.2 131.44 358.236 186.775c32.844 56.733 57.46 114.21 67.036 162.582 12.117 61.213 2.31 107.984-21.453 121.74-23.058 13.348-65.25-.784-110.24-39.5-38.013-32.71-78.682-83.252-112.76-142.114z"/></g></svg>