<svg xmlns="http://www.w3.org/2000/svg" viewBox="0 0 171 146"><g fill="none" fill-rule="evenodd"><path fill="#A41E11" d="M163.77 112.54c-9.078 4.732-56.106 24.068-66.118 29.287-10.012 5.22-15.574 5.17-23.483 1.39-7.91-3.782-57.956-23.997-66.97-28.306-4.507-2.153-6.876-3.97-6.876-5.687V92.028S65.477 77.844 75.996 74.07c10.518-3.773 14.167-3.91 23.118-.63 8.952 3.28 62.474 12.936 71.32 16.176l-.003 16.95c.002 1.7-2.04 3.566-6.66 5.974z"/><path fill="#D82C20" d="M163.77 95.34c-9.078 4.73-56.106 24.068-66.118 29.287-10.012 5.22-15.574 5.17-23.483 1.39-7.91-3.78-57.956-24-66.97-28.306-9.016-4.308-9.205-7.274-.35-10.74 8.856-3.47 58.627-22.997 69.147-26.77 10.518-3.773 14.167-3.91 23.118-.63 8.952 3.278 55.7 21.885 64.545 25.125 8.848 3.243 9.188 5.913.11 10.645z"/><path fill="#A41E11" d="M163.77 84.5c-9.078 4.732-56.106 24.068-66.118 29.29-10.012 5.218-15.574 5.167-23.483 1.386-7.91-3.78-57.956-23.996-66.97-28.305C2.692 84.718.323 82.903.323 81.186V63.988S65.477 49.805 75.996 46.03c10.518-3.772 14.167-3.91 23.118-.63 8.952 3.28 62.474 12.934 71.32 16.175l-.003 16.953c.002 1.7-2.04 3.564-6.66 5.972z"/><path fill="#D82C20" d="M163.77 67.3c-9.078 4.732-56.106 24.068-66.118 29.29-10.012 5.218-15.574 5.167-23.483 1.386C66.26 94.196 16.213 73.98 7.2 69.67c-9.016-4.307-9.205-7.273-.35-10.742 8.856-3.467 58.627-22.995 69.147-26.768 10.518-3.773 14.167-3.91 23.118-.63 8.952 3.278 55.7 21.884 64.545 25.125 8.848 3.242 9.188 5.913.11 10.645z"/><path fill="#A41E11" d="M163.77 55.42c-9.078 4.732-56.106 24.07-66.118 29.29-10.012 5.22-15.574 5.168-23.483 1.387C66.26 82.317 16.213 62.1 7.2 57.792 2.692 55.638.323 53.822.323 52.106V34.91s65.153-14.184 75.672-17.957c10.518-3.774 14.167-3.91 23.118-.63 8.952 3.278 62.474 12.933 71.32 16.174l-.003 16.952c.002 1.697-2.04 3.562-6.66 5.97z"/><path fill="#D82C20" d="M163.77 38.22c-9.078 4.732-56.106 24.07-66.118 29.29-10.012 5.218-15.574 5.167-23.483 1.387C66.26 65.117 16.213 44.9 7.2 40.592c-9.016-4.308-9.205-7.275-.35-10.743 8.856-3.47 58.627-22.995 69.147-26.77C86.515-.692 90.164-.83 99.115 2.45c8.952 3.28 55.7 21.886 64.545 25.127 8.848 3.24 9.188 5.912.11 10.643z"/><path fill="#FFF" d="M107.67 21.66l-14.74 1.53-3.3 7.94-5.33-8.86-17.02-1.53 12.7-4.58-3.81-7.03 11.89 4.65 11.21-3.67-3.03 7.27m-7.49 42.8L61.24 48.77l39.42-6.05"/><ellipse cx="50.61" cy="34.24" fill="#FFF" rx="21.069" ry="8.167"/><path fill="#7A0C00" d="M125.09 23.83l23.33 9.22-23.31 9.21"/><path fill="#AD2115" d="M99.28 34.04l25.81-10.21.02 18.43-2.53.99"/></g></svg>