<svg xmlns="http://www.w3.org/2000/svg" viewBox="0 0 411 411"><path fill="#BE5F8A" fill-rule="evenodd" d="M205.436.13c113.46 0 205.435 91.976 205.435 205.435C410.87 319.025 318.897 411 205.438 411 91.977 411 0 319.024 0 205.565 0 92.105 91.977.13 205.436.13zM164.61 273.995c2.988 11.056 2.66 21.366-.427 30.703a50.804 50.804 0 0 1-2.46 6.076c-2.382 4.94-5.577 9.565-9.49 13.833-11.936 13.02-28.613 17.945-35.764 13.796-7.724-4.476-3.856-22.836 9.983-37.464 14.888-15.74 36.31-25.86 36.31-25.86l-.034-.063c.616-.332 1.243-.674 1.88-1.024zM334.3 88.058c-9.304-36.486-69.802-48.48-127.06-28.14-34.075 12.108-70.964 31.108-97.488 55.917-31.537 29.498-36.566 55.172-34.493 65.9 7.31 37.854 59.177 62.597 80.5 80.955v.11c-6.288 3.096-52.305 26.384-63.074 50.192-11.363 25.117 1.81 43.14 10.53 45.567 27.018 7.515 54.744-6.006 69.644-28.23 14.38-21.45 13.183-49.145 6.934-62.92 8.62-2.276 18.67-3.295 31.44-1.803 36.037 4.21 43.108 26.71 41.756 36.126-1.35 9.418-8.91 14.596-11.437 16.16-2.528 1.563-3.3 2.104-3.086 3.266.306 1.69 1.476 1.626 3.63 1.26 2.967-.5 18.924-7.66 19.606-25.042.87-22.07-20.28-46.76-57.73-46.114-15.423.266-25.12 1.733-32.126 4.34a71.867 71.867 0 0 0-1.59-1.758c-23.152-24.7-65.95-42.174-64.136-75.38.66-12.073 4.858-43.862 82.24-82.42 63.39-31.588 114.137-22.896 122.907-3.632 12.527 27.52-27.12 78.673-92.952 86.05-25.08 2.813-38.287-6.908-41.572-10.528-3.46-3.81-3.974-3.983-5.265-3.268-2.104 1.165-.77 4.53 0 6.536 1.965 5.115 10.03 14.186 23.782 18.698 12.095 3.97 41.543 6.15 77.156-7.624 39.885-15.43 71.03-58.347 61.883-94.222z"/></svg>